<svg width="950" height="350" viewBox="0 0 950 350" fill="none" xmlns="http://www.w3.org/2000/svg">
<g clip-path="url(#clip0_1_210)">
<rect width="950" height="355" fill="url(#paint0_linear_1_210)"/>
<g clip-path="url(#clip1_1_210)">
<path opacity="0.108" d="M328.46 322.663V262.472C328.46 260.676 328.106 258.898 327.419 257.24C326.732 255.581 325.725 254.073 324.455 252.804C323.185 251.534 321.677 250.527 320.018 249.84C318.359 249.153 316.581 248.799 314.785 248.799H254.491C252.417 248.799 250.39 249.414 248.666 250.566C246.942 251.719 245.598 253.356 244.805 255.272C244.012 257.188 243.805 259.296 244.21 261.329C244.615 263.363 245.614 265.23 247.081 266.696L310.544 330.089C312.012 331.555 313.883 332.554 315.919 332.958C317.955 333.362 320.065 333.153 321.982 332.358C323.899 331.564 325.538 330.219 326.691 328.493C327.844 326.767 328.46 324.739 328.46 322.663Z" fill="#1C71D8"/>
<path opacity="0.108" d="M25.7387 67.2852V201.319C25.7389 203.907 26.5076 206.437 27.9473 208.587C29.387 210.738 31.433 212.412 33.8258 213.399C36.2185 214.385 38.8504 214.639 41.3877 214.128C43.9249 213.617 46.2533 212.365 48.0777 210.529L110.066 148.146C113.601 144.588 115.591 139.78 115.603 134.764C115.615 129.748 113.648 124.93 110.13 121.355L47.967 58.1835C46.1605 56.3476 43.8485 55.0907 41.3253 54.5729C38.802 54.0551 36.1818 54.2998 33.7981 55.2758C31.4144 56.2519 29.3751 57.9151 27.9399 60.0537C26.5047 62.1924 25.7384 64.7097 25.7387 67.2852Z" fill="#1C71D8"/>
<path opacity="0.108" d="M122.247 258.651V317.888C122.246 319.719 121.886 321.532 121.184 323.224C120.483 324.916 119.456 326.453 118.161 327.748C116.865 329.043 115.328 330.07 113.635 330.771C111.943 331.472 110.129 331.832 108.298 331.832H48.9604C46.8306 331.832 44.7486 331.201 42.9779 330.018C41.2071 328.834 39.8271 327.153 39.0126 325.185C38.198 323.217 37.9855 321.052 38.4018 318.964C38.8181 316.875 39.8447 314.957 41.3515 313.452L103.848 251.025C105.356 249.518 107.277 248.493 109.368 248.078C111.459 247.663 113.626 247.877 115.595 248.693C117.564 249.509 119.248 250.891 120.432 252.663C121.616 254.436 122.247 256.519 122.247 258.651Z" fill="#1C71D8"/>
<path opacity="0.108" d="M359.687 230.266H489.226C491.727 230.266 494.171 229.523 496.25 228.132C498.328 226.741 499.947 224.764 500.9 222.452C501.853 220.141 502.099 217.598 501.605 215.146C501.111 212.695 499.9 210.445 498.126 208.682L437.836 148.789C434.397 145.373 429.75 143.451 424.903 143.439C420.055 143.428 415.399 145.328 411.943 148.727L350.891 208.789C349.117 210.535 347.902 212.769 347.401 215.206C346.901 217.644 347.138 220.176 348.081 222.479C349.024 224.782 350.632 226.753 352.698 228.139C354.765 229.526 357.198 230.267 359.687 230.266Z" fill="#1C71D8"/>
<path opacity="0.108" d="M225.191 258.651V317.888C225.191 319.719 224.83 321.532 224.129 323.224C223.428 324.916 222.4 326.453 221.105 327.748C219.81 329.043 218.272 330.07 216.58 330.771C214.888 331.472 213.074 331.832 211.242 331.832H151.905C149.775 331.832 147.693 331.201 145.922 330.018C144.152 328.834 142.772 327.153 141.957 325.185C141.143 323.217 140.93 321.052 141.346 318.964C141.763 316.875 142.789 314.957 144.296 313.452L206.792 251.025C208.301 249.518 210.222 248.493 212.313 248.078C214.403 247.663 216.571 247.877 218.54 248.693C220.509 249.509 222.192 250.891 223.376 252.663C224.56 254.436 225.191 256.519 225.191 258.651Z" fill="#1C71D8"/>
<path opacity="0.108" d="M225.191 52.7886V112.025C225.191 113.857 224.83 115.67 224.129 117.362C223.428 119.054 222.4 120.591 221.105 121.886C219.81 123.181 218.272 124.208 216.58 124.909C214.888 125.61 213.074 125.97 211.242 125.97H151.905C149.775 125.97 147.693 125.339 145.922 124.155C144.152 122.972 142.772 121.29 141.957 119.323C141.143 117.355 140.93 115.19 141.346 113.102C141.763 111.013 142.789 109.095 144.296 107.59L206.792 45.1627C208.301 43.6563 210.222 42.6308 212.313 42.2158C214.403 41.8008 216.571 42.0149 218.54 42.8311C220.509 43.6472 222.192 45.0288 223.376 46.8012C224.56 48.5736 225.191 50.6572 225.191 52.7886Z" fill="#1C71D8"/>
<path opacity="0.108" d="M328.136 52.7886V112.025C328.136 113.857 327.775 115.67 327.074 117.362C326.372 119.054 325.345 120.591 324.05 121.886C322.754 123.181 321.217 124.208 319.524 124.909C317.832 125.61 316.018 125.97 314.187 125.97H254.85C252.72 125.97 250.638 125.339 248.867 124.155C247.096 122.972 245.716 121.29 244.902 119.323C244.087 117.355 243.875 115.19 244.291 113.102C244.707 111.013 245.734 109.095 247.241 107.59L309.737 45.1627C311.245 43.6563 313.166 42.6308 315.257 42.2158C317.348 41.8008 319.515 42.0149 321.484 42.8311C323.454 43.6472 325.137 45.0288 326.321 46.8012C327.505 48.5736 328.136 50.6572 328.136 52.7886Z" fill="#1C71D8"/>
<path opacity="0.108" d="M431.08 52.7886V112.025C431.08 113.857 430.719 115.67 430.018 117.362C429.317 119.054 428.29 120.591 426.994 121.886C425.699 123.181 424.161 124.208 422.469 124.909C420.777 125.61 418.963 125.97 417.131 125.97H357.794C355.664 125.97 353.582 125.339 351.812 124.155C350.041 122.972 348.661 121.29 347.846 119.323C347.032 117.355 346.819 115.19 347.235 113.102C347.652 111.013 348.678 109.095 350.185 107.59L412.682 45.1627C414.19 43.6563 416.111 42.6308 418.202 42.2158C420.293 41.8008 422.46 42.0149 424.429 42.8311C426.398 43.6472 428.081 45.0288 429.265 46.8012C430.449 48.5736 431.08 50.6572 431.08 52.7886Z" fill="#1C71D8"/>
<path opacity="0.108" d="M328.136 -50.1424V9.09441C328.136 10.9258 327.775 12.7392 327.074 14.4312C326.372 16.1231 325.345 17.6604 324.05 18.9552C322.754 20.2501 321.217 21.2772 319.524 21.9779C317.832 22.6786 316.018 23.0391 314.187 23.039H254.85C252.72 23.0392 250.638 22.4077 248.867 21.2245C247.096 20.0412 245.716 18.3594 244.902 16.3918C244.087 14.4242 243.875 12.2592 244.291 10.1707C244.707 8.08232 245.734 6.16429 247.241 4.65934L309.737 -57.7683C311.245 -59.2747 313.166 -60.3002 315.257 -60.7152C317.348 -61.1302 319.515 -60.9161 321.484 -60.1C323.454 -59.2838 325.137 -57.9022 326.321 -56.1298C327.505 -54.3575 328.136 -52.2739 328.136 -50.1424Z" fill="#1C71D8"/>
<path opacity="0.108" d="M449.972 12.2595V-46.9773C449.972 -48.8087 450.333 -50.6221 451.034 -52.3141C451.735 -54.006 452.763 -55.5433 454.058 -56.8382C455.353 -58.133 456.891 -59.1601 458.583 -59.8608C460.276 -60.5615 462.089 -60.922 463.921 -60.9219L523.258 -60.9219C525.388 -60.9221 527.47 -60.2906 529.241 -59.1074C531.011 -57.9241 532.391 -56.2423 533.206 -54.2747C534.021 -52.3071 534.233 -50.1421 533.817 -48.0537C533.4 -45.9652 532.374 -44.0472 530.867 -42.5422L468.371 19.8854C466.863 21.3918 464.942 22.4173 462.851 22.8323C460.76 23.2473 458.593 23.0332 456.623 22.217C454.654 21.4009 452.971 20.0193 451.787 18.2469C450.603 16.4745 449.972 14.391 449.972 12.2595Z" fill="#1C71D8"/>
<path opacity="0.108" d="M552.916 115.191V55.9537C552.917 54.1223 553.278 52.3089 553.979 50.617C554.68 48.925 555.707 47.3878 557.003 46.0929C558.298 44.798 559.835 43.7709 561.528 43.0702C563.22 42.3695 565.034 42.009 566.865 42.0091L626.203 42.0091C628.332 42.009 630.414 42.6404 632.185 43.8237C633.956 45.0069 635.336 46.6887 636.151 48.6563C636.965 50.624 637.178 52.789 636.761 54.8774C636.345 56.9658 635.318 58.8838 633.812 60.3888L571.315 122.816C569.807 124.323 567.886 125.348 565.795 125.763C563.704 126.178 561.537 125.964 559.568 125.148C557.599 124.332 555.916 122.95 554.731 121.178C553.547 119.406 552.917 117.322 552.916 115.191Z" fill="#1C71D8"/>
<path opacity="0.108" d="M636.969 156.731V215.968C636.969 217.799 636.608 219.613 635.907 221.305C635.206 222.996 634.179 224.534 632.883 225.829C631.588 227.124 630.05 228.151 628.358 228.851C626.666 229.552 624.852 229.913 623.02 229.912H563.683C561.553 229.913 559.471 229.281 557.701 228.098C555.93 226.915 554.55 225.233 553.735 223.265C552.921 221.298 552.708 219.133 553.125 217.044C553.541 214.956 554.567 213.038 556.074 211.533L618.571 149.105C620.079 147.599 622 146.573 624.091 146.158C626.182 145.743 628.349 145.957 630.318 146.773C632.287 147.59 633.97 148.971 635.154 150.744C636.339 152.516 636.969 154.6 636.969 156.731Z" fill="#1C71D8"/>
<path opacity="0.108" d="M244.007 155.353V215.544C244.007 217.34 244.361 219.118 245.048 220.777C245.735 222.436 246.742 223.943 248.012 225.213C249.282 226.482 250.789 227.49 252.449 228.177C254.108 228.864 255.886 229.218 257.682 229.218H317.976C320.05 229.217 322.077 228.602 323.801 227.45C325.525 226.298 326.869 224.66 327.662 222.744C328.455 220.829 328.662 218.721 328.257 216.687C327.852 214.654 326.853 212.786 325.386 211.32L261.923 147.928C260.454 146.461 258.584 145.463 256.548 145.059C254.512 144.655 252.402 144.863 250.485 145.658C248.568 146.453 246.929 147.798 245.776 149.523C244.623 151.249 244.007 153.278 244.007 155.353Z" fill="#1C71D8"/>
<path opacity="0.108" d="M431.08 258.651V317.888C431.08 319.719 430.719 321.532 430.018 323.224C429.317 324.916 428.29 326.453 426.994 327.748C425.699 329.043 424.161 330.07 422.469 330.771C420.777 331.472 418.963 331.832 417.131 331.832H357.794C355.664 331.832 353.582 331.201 351.812 330.018C350.041 328.834 348.661 327.153 347.846 325.185C347.032 323.217 346.819 321.052 347.235 318.964C347.652 316.875 348.678 314.957 350.185 313.452L412.682 251.025C414.19 249.518 416.111 248.493 418.202 248.078C420.293 247.663 422.46 247.877 424.429 248.693C426.398 249.509 428.081 250.891 429.265 252.663C430.449 254.436 431.08 256.519 431.08 258.651Z" fill="#1C71D8"/>
</g>
<path d="M146.091 163.091V172.182H122.727V163.091H146.091ZM127.182 198V162.091C127.182 159.212 127.697 156.826 128.727 154.932C129.758 153.038 131.212 151.621 133.091 150.682C134.97 149.742 137.182 149.273 139.727 149.273C141.318 149.273 142.864 149.394 144.364 149.636C145.879 149.879 147 150.091 147.727 150.273L145.909 159.273C145.455 159.136 144.924 159.03 144.318 158.955C143.712 158.864 143.182 158.818 142.727 158.818C141.545 158.818 140.75 159.068 140.341 159.568C139.932 160.068 139.727 160.727 139.727 161.545V198H127.182ZM163.477 151.455V198H150.932V151.455H163.477ZM186.688 198.636C182.9 198.636 179.657 197.886 176.96 196.386C174.263 194.871 172.195 192.765 170.756 190.068C169.316 187.356 168.597 184.212 168.597 180.636C168.597 177.061 169.316 173.924 170.756 171.227C172.195 168.515 174.263 166.409 176.96 164.909C179.657 163.394 182.9 162.636 186.688 162.636C190.475 162.636 193.718 163.394 196.415 164.909C199.112 166.409 201.18 168.515 202.619 171.227C204.059 173.924 204.778 177.061 204.778 180.636C204.778 184.212 204.059 187.356 202.619 190.068C201.18 192.765 199.112 194.871 196.415 196.386C193.718 197.886 190.475 198.636 186.688 198.636ZM186.778 189.364C187.839 189.364 188.756 189.008 189.528 188.295C190.301 187.583 190.9 186.568 191.324 185.25C191.748 183.932 191.96 182.364 191.96 180.545C191.96 178.712 191.748 177.144 191.324 175.841C190.9 174.523 190.301 173.508 189.528 172.795C188.756 172.083 187.839 171.727 186.778 171.727C185.657 171.727 184.695 172.083 183.892 172.795C183.089 173.508 182.475 174.523 182.051 175.841C181.627 177.144 181.415 178.712 181.415 180.545C181.415 182.364 181.627 183.932 182.051 185.25C182.475 186.568 183.089 187.583 183.892 188.295C184.695 189.008 185.657 189.364 186.778 189.364ZM209.869 198V163.091H222.051V169.727H222.415C223.051 167.273 224.059 165.477 225.438 164.341C226.831 163.205 228.46 162.636 230.324 162.636C230.869 162.636 231.407 162.682 231.938 162.773C232.483 162.848 233.006 162.962 233.506 163.114V173.818C232.884 173.606 232.119 173.447 231.21 173.341C230.301 173.235 229.521 173.182 228.869 173.182C227.642 173.182 226.536 173.462 225.551 174.023C224.581 174.568 223.816 175.341 223.256 176.341C222.695 177.326 222.415 178.485 222.415 179.818V198H209.869ZM237.619 198V163.091H250.165V198H237.619ZM243.892 159.455C242.195 159.455 240.741 158.894 239.528 157.773C238.316 156.652 237.71 155.303 237.71 153.727C237.71 152.152 238.316 150.803 239.528 149.682C240.741 148.561 242.195 148 243.892 148C245.604 148 247.059 148.561 248.256 149.682C249.468 150.803 250.074 152.152 250.074 153.727C250.074 155.303 249.468 156.652 248.256 157.773C247.059 158.894 245.604 159.455 243.892 159.455ZM269.102 178.364V198H256.557V163.091H268.466V169.727H268.83C269.587 167.515 270.92 165.78 272.83 164.523C274.754 163.265 276.996 162.636 279.557 162.636C282.027 162.636 284.17 163.205 285.989 164.341C287.822 165.462 289.239 167.008 290.239 168.977C291.254 170.947 291.754 173.197 291.739 175.727V198H279.193V178.364C279.208 176.636 278.769 175.28 277.875 174.295C276.996 173.311 275.769 172.818 274.193 172.818C273.163 172.818 272.261 173.045 271.489 173.5C270.731 173.939 270.148 174.576 269.739 175.409C269.33 176.227 269.117 177.212 269.102 178.364ZM329.841 174.455H318.295C318.235 173.742 317.985 173.129 317.545 172.614C317.106 172.098 316.538 171.705 315.841 171.432C315.159 171.144 314.402 171 313.568 171C312.492 171 311.568 171.197 310.795 171.591C310.023 171.985 309.644 172.545 309.659 173.273C309.644 173.788 309.864 174.265 310.318 174.705C310.788 175.144 311.689 175.485 313.023 175.727L320.114 177C323.689 177.652 326.348 178.75 328.091 180.295C329.848 181.826 330.735 183.879 330.75 186.455C330.735 188.939 329.992 191.098 328.523 192.932C327.068 194.75 325.076 196.159 322.545 197.159C320.03 198.144 317.159 198.636 313.932 198.636C308.598 198.636 304.424 197.545 301.409 195.364C298.409 193.182 296.735 190.303 296.386 186.727H308.841C309.008 187.833 309.553 188.689 310.477 189.295C311.417 189.886 312.598 190.182 314.023 190.182C315.174 190.182 316.121 189.985 316.864 189.591C317.621 189.197 318.008 188.636 318.023 187.909C318.008 187.242 317.674 186.712 317.023 186.318C316.386 185.924 315.386 185.606 314.023 185.364L307.841 184.273C304.28 183.652 301.614 182.47 299.841 180.727C298.068 178.985 297.189 176.742 297.205 174C297.189 171.576 297.826 169.523 299.114 167.841C300.417 166.144 302.273 164.856 304.682 163.977C307.106 163.083 309.977 162.636 313.295 162.636C318.341 162.636 322.318 163.682 325.227 165.773C328.152 167.864 329.689 170.758 329.841 174.455ZM348.193 198.455C345.708 198.455 343.42 197.803 341.33 196.5C339.254 195.197 337.587 193.22 336.33 190.568C335.087 187.917 334.466 184.576 334.466 180.545C334.466 176.333 335.117 172.909 336.42 170.273C337.739 167.636 339.436 165.705 341.511 164.477C343.602 163.25 345.799 162.636 348.102 162.636C349.83 162.636 351.345 162.939 352.648 163.545C353.951 164.136 355.042 164.932 355.92 165.932C356.799 166.917 357.466 168 357.92 169.182H358.102V151.455H370.648V198H358.193V192.273H357.92C357.436 193.455 356.739 194.515 355.83 195.455C354.936 196.379 353.845 197.114 352.557 197.659C351.284 198.189 349.83 198.455 348.193 198.455ZM352.83 188.818C353.981 188.818 354.966 188.485 355.784 187.818C356.617 187.136 357.254 186.182 357.693 184.955C358.148 183.712 358.375 182.242 358.375 180.545C358.375 178.818 358.148 177.341 357.693 176.114C357.254 174.871 356.617 173.924 355.784 173.273C354.966 172.606 353.981 172.273 352.83 172.273C351.678 172.273 350.693 172.606 349.875 173.273C349.072 173.924 348.451 174.871 348.011 176.114C347.587 177.341 347.375 178.818 347.375 180.545C347.375 182.273 347.587 183.758 348.011 185C348.451 186.227 349.072 187.174 349.875 187.841C350.693 188.492 351.678 188.818 352.83 188.818ZM376.807 198V163.091H389.352V198H376.807ZM383.08 159.455C381.383 159.455 379.928 158.894 378.716 157.773C377.504 156.652 376.898 155.303 376.898 153.727C376.898 152.152 377.504 150.803 378.716 149.682C379.928 148.561 381.383 148 383.08 148C384.792 148 386.246 148.561 387.443 149.682C388.655 150.803 389.261 152.152 389.261 153.727C389.261 155.303 388.655 156.652 387.443 157.773C386.246 158.894 384.792 159.455 383.08 159.455ZM427.653 174.455H416.108C416.047 173.742 415.797 173.129 415.358 172.614C414.919 172.098 414.35 171.705 413.653 171.432C412.972 171.144 412.214 171 411.381 171C410.305 171 409.381 171.197 408.608 171.591C407.835 171.985 407.456 172.545 407.472 173.273C407.456 173.788 407.676 174.265 408.131 174.705C408.6 175.144 409.502 175.485 410.835 175.727L417.926 177C421.502 177.652 424.161 178.75 425.903 180.295C427.661 181.826 428.547 183.879 428.562 186.455C428.547 188.939 427.805 191.098 426.335 192.932C424.881 194.75 422.888 196.159 420.358 197.159C417.843 198.144 414.972 198.636 411.744 198.636C406.411 198.636 402.237 197.545 399.222 195.364C396.222 193.182 394.547 190.303 394.199 186.727H406.653C406.82 187.833 407.366 188.689 408.29 189.295C409.229 189.886 410.411 190.182 411.835 190.182C412.987 190.182 413.934 189.985 414.676 189.591C415.434 189.197 415.82 188.636 415.835 187.909C415.82 187.242 415.487 186.712 414.835 186.318C414.199 185.924 413.199 185.606 411.835 185.364L405.653 184.273C402.093 183.652 399.426 182.47 397.653 180.727C395.881 178.985 395.002 176.742 395.017 174C395.002 171.576 395.638 169.523 396.926 167.841C398.229 166.144 400.085 164.856 402.494 163.977C404.919 163.083 407.79 162.636 411.108 162.636C416.153 162.636 420.131 163.682 423.04 165.773C425.964 167.864 427.502 170.758 427.653 174.455ZM454.188 163.091V172.182H431.188V163.091H454.188ZM435.642 154.727H448.188V186.773C448.188 187.258 448.271 187.667 448.438 188C448.604 188.318 448.862 188.561 449.21 188.727C449.559 188.879 450.006 188.955 450.551 188.955C450.93 188.955 451.369 188.909 451.869 188.818C452.384 188.727 452.763 188.652 453.006 188.591L454.824 197.409C454.263 197.576 453.46 197.78 452.415 198.023C451.384 198.265 450.157 198.424 448.733 198.5C445.854 198.652 443.438 198.356 441.483 197.614C439.528 196.856 438.059 195.667 437.074 194.045C436.089 192.424 435.612 190.394 435.642 187.955V154.727ZM475.75 198.636C471.962 198.636 468.72 197.886 466.023 196.386C463.326 194.871 461.258 192.765 459.818 190.068C458.379 187.356 457.659 184.212 457.659 180.636C457.659 177.061 458.379 173.924 459.818 171.227C461.258 168.515 463.326 166.409 466.023 164.909C468.72 163.394 471.962 162.636 475.75 162.636C479.538 162.636 482.78 163.394 485.477 164.909C488.174 166.409 490.242 168.515 491.682 171.227C493.121 173.924 493.841 177.061 493.841 180.636C493.841 184.212 493.121 187.356 491.682 190.068C490.242 192.765 488.174 194.871 485.477 196.386C482.78 197.886 479.538 198.636 475.75 198.636ZM475.841 189.364C476.902 189.364 477.818 189.008 478.591 188.295C479.364 187.583 479.962 186.568 480.386 185.25C480.811 183.932 481.023 182.364 481.023 180.545C481.023 178.712 480.811 177.144 480.386 175.841C479.962 174.523 479.364 173.508 478.591 172.795C477.818 172.083 476.902 171.727 475.841 171.727C474.72 171.727 473.758 172.083 472.955 172.795C472.152 173.508 471.538 174.523 471.114 175.841C470.689 177.144 470.477 178.712 470.477 180.545C470.477 182.364 470.689 183.932 471.114 185.25C471.538 186.568 472.152 187.583 472.955 188.295C473.758 189.008 474.72 189.364 475.841 189.364ZM498.932 198V163.091H511.114V169.727H511.477C512.114 167.273 513.121 165.477 514.5 164.341C515.894 163.205 517.523 162.636 519.386 162.636C519.932 162.636 520.47 162.682 521 162.773C521.545 162.848 522.068 162.962 522.568 163.114V173.818C521.947 173.606 521.182 173.447 520.273 173.341C519.364 173.235 518.583 173.182 517.932 173.182C516.705 173.182 515.598 173.462 514.614 174.023C513.644 174.568 512.879 175.341 512.318 176.341C511.758 177.326 511.477 178.485 511.477 179.818V198H498.932ZM548.938 163.091V172.182H525.938V163.091H548.938ZM530.392 154.727H542.938V186.773C542.938 187.258 543.021 187.667 543.188 188C543.354 188.318 543.612 188.561 543.96 188.727C544.309 188.879 544.756 188.955 545.301 188.955C545.68 188.955 546.119 188.909 546.619 188.818C547.134 188.727 547.513 188.652 547.756 188.591L549.574 197.409C549.013 197.576 548.21 197.78 547.165 198.023C546.134 198.265 544.907 198.424 543.483 198.5C540.604 198.652 538.188 198.356 536.233 197.614C534.278 196.856 532.809 195.667 531.824 194.045C530.839 192.424 530.362 190.394 530.392 187.955V154.727ZM570.409 198.636C566.682 198.636 563.47 197.924 560.773 196.5C558.091 195.061 556.023 193 554.568 190.318C553.129 187.621 552.409 184.394 552.409 180.636C552.409 177.03 553.136 173.879 554.591 171.182C556.045 168.485 558.098 166.386 560.75 164.886C563.402 163.386 566.53 162.636 570.136 162.636C572.773 162.636 575.159 163.045 577.295 163.864C579.432 164.682 581.258 165.871 582.773 167.432C584.288 168.977 585.455 170.856 586.273 173.068C587.091 175.28 587.5 177.773 587.5 180.545V183.455H556.318V176.545H575.955C575.939 175.545 575.682 174.667 575.182 173.909C574.697 173.136 574.038 172.538 573.205 172.114C572.386 171.674 571.455 171.455 570.409 171.455C569.394 171.455 568.462 171.674 567.614 172.114C566.765 172.538 566.083 173.129 565.568 173.886C565.068 174.644 564.803 175.53 564.773 176.545V184C564.773 185.121 565.008 186.121 565.477 187C565.947 187.879 566.621 188.568 567.5 189.068C568.379 189.568 569.439 189.818 570.682 189.818C571.545 189.818 572.333 189.697 573.045 189.455C573.773 189.212 574.394 188.864 574.909 188.409C575.424 187.939 575.803 187.379 576.045 186.727H587.5C587.106 189.152 586.174 191.258 584.705 193.045C583.235 194.818 581.288 196.197 578.864 197.182C576.455 198.152 573.636 198.636 570.409 198.636ZM605.256 198.455C602.771 198.455 600.483 197.803 598.392 196.5C596.316 195.197 594.65 193.22 593.392 190.568C592.15 187.917 591.528 184.576 591.528 180.545C591.528 176.333 592.18 172.909 593.483 170.273C594.801 167.636 596.498 165.705 598.574 164.477C600.665 163.25 602.862 162.636 605.165 162.636C606.892 162.636 608.407 162.939 609.71 163.545C611.013 164.136 612.104 164.932 612.983 165.932C613.862 166.917 614.528 168 614.983 169.182H615.165V151.455H627.71V198H615.256V192.273H614.983C614.498 193.455 613.801 194.515 612.892 195.455C611.998 196.379 610.907 197.114 609.619 197.659C608.347 198.189 606.892 198.455 605.256 198.455ZM609.892 188.818C611.044 188.818 612.028 188.485 612.847 187.818C613.68 187.136 614.316 186.182 614.756 184.955C615.21 183.712 615.438 182.242 615.438 180.545C615.438 178.818 615.21 177.341 614.756 176.114C614.316 174.871 613.68 173.924 612.847 173.273C612.028 172.606 611.044 172.273 609.892 172.273C608.741 172.273 607.756 172.606 606.938 173.273C606.134 173.924 605.513 174.871 605.074 176.114C604.65 177.341 604.438 178.818 604.438 180.545C604.438 182.273 604.65 183.758 605.074 185C605.513 186.227 606.134 187.174 606.938 187.841C607.756 188.492 608.741 188.818 609.892 188.818ZM669.051 163.091L657.324 198H642.778L631.051 163.091H644.233L649.869 186.182H650.233L655.869 163.091H669.051ZM672.619 198V163.091H685.165V198H672.619ZM678.892 159.455C677.195 159.455 675.741 158.894 674.528 157.773C673.316 156.652 672.71 155.303 672.71 153.727C672.71 152.152 673.316 150.803 674.528 149.682C675.741 148.561 677.195 148 678.892 148C680.604 148 682.059 148.561 683.256 149.682C684.468 150.803 685.074 152.152 685.074 153.727C685.074 155.303 684.468 156.652 683.256 157.773C682.059 158.894 680.604 159.455 678.892 159.455ZM723.466 174.455H711.92C711.86 173.742 711.61 173.129 711.17 172.614C710.731 172.098 710.163 171.705 709.466 171.432C708.784 171.144 708.027 171 707.193 171C706.117 171 705.193 171.197 704.42 171.591C703.648 171.985 703.269 172.545 703.284 173.273C703.269 173.788 703.489 174.265 703.943 174.705C704.413 175.144 705.314 175.485 706.648 175.727L713.739 177C717.314 177.652 719.973 178.75 721.716 180.295C723.473 181.826 724.36 183.879 724.375 186.455C724.36 188.939 723.617 191.098 722.148 192.932C720.693 194.75 718.701 196.159 716.17 197.159C713.655 198.144 710.784 198.636 707.557 198.636C702.223 198.636 698.049 197.545 695.034 195.364C692.034 193.182 690.36 190.303 690.011 186.727H702.466C702.633 187.833 703.178 188.689 704.102 189.295C705.042 189.886 706.223 190.182 707.648 190.182C708.799 190.182 709.746 189.985 710.489 189.591C711.246 189.197 711.633 188.636 711.648 187.909C711.633 187.242 711.299 186.712 710.648 186.318C710.011 185.924 709.011 185.606 707.648 185.364L701.466 184.273C697.905 183.652 695.239 182.47 693.466 180.727C691.693 178.985 690.814 176.742 690.83 174C690.814 171.576 691.451 169.523 692.739 167.841C694.042 166.144 695.898 164.856 698.307 163.977C700.731 163.083 703.602 162.636 706.92 162.636C711.966 162.636 715.943 163.682 718.852 165.773C721.777 167.864 723.314 170.758 723.466 174.455ZM729.182 198V163.091H741.727V198H729.182ZM735.455 159.455C733.758 159.455 732.303 158.894 731.091 157.773C729.879 156.652 729.273 155.303 729.273 153.727C729.273 152.152 729.879 150.803 731.091 149.682C732.303 148.561 733.758 148 735.455 148C737.167 148 738.621 148.561 739.818 149.682C741.03 150.803 741.636 152.152 741.636 153.727C741.636 155.303 741.03 156.652 739.818 157.773C738.621 158.894 737.167 159.455 735.455 159.455ZM764.938 198.636C761.15 198.636 757.907 197.886 755.21 196.386C752.513 194.871 750.445 192.765 749.006 190.068C747.566 187.356 746.847 184.212 746.847 180.636C746.847 177.061 747.566 173.924 749.006 171.227C750.445 168.515 752.513 166.409 755.21 164.909C757.907 163.394 761.15 162.636 764.938 162.636C768.725 162.636 771.968 163.394 774.665 164.909C777.362 166.409 779.43 168.515 780.869 171.227C782.309 173.924 783.028 177.061 783.028 180.636C783.028 184.212 782.309 187.356 780.869 190.068C779.43 192.765 777.362 194.871 774.665 196.386C771.968 197.886 768.725 198.636 764.938 198.636ZM765.028 189.364C766.089 189.364 767.006 189.008 767.778 188.295C768.551 187.583 769.15 186.568 769.574 185.25C769.998 183.932 770.21 182.364 770.21 180.545C770.21 178.712 769.998 177.144 769.574 175.841C769.15 174.523 768.551 173.508 767.778 172.795C767.006 172.083 766.089 171.727 765.028 171.727C763.907 171.727 762.945 172.083 762.142 172.795C761.339 173.508 760.725 174.523 760.301 175.841C759.877 177.144 759.665 178.712 759.665 180.545C759.665 182.364 759.877 183.932 760.301 185.25C760.725 186.568 761.339 187.583 762.142 188.295C762.945 189.008 763.907 189.364 765.028 189.364ZM800.665 178.364V198H788.119V163.091H800.028V169.727H800.392C801.15 167.515 802.483 165.78 804.392 164.523C806.316 163.265 808.559 162.636 811.119 162.636C813.589 162.636 815.733 163.205 817.551 164.341C819.384 165.462 820.801 167.008 821.801 168.977C822.816 170.947 823.316 173.197 823.301 175.727V198H810.756V178.364C810.771 176.636 810.331 175.28 809.438 174.295C808.559 173.311 807.331 172.818 805.756 172.818C804.725 172.818 803.824 173.045 803.051 173.5C802.294 173.939 801.71 174.576 801.301 175.409C800.892 176.227 800.68 177.212 800.665 178.364Z" fill="black"/>
<path d="M322.364 251H317.435V236.455H322.463C323.907 236.455 325.148 236.746 326.185 237.328C327.226 237.906 328.027 238.737 328.585 239.821C329.144 240.905 329.423 242.203 329.423 243.713C329.423 245.228 329.142 246.53 328.578 247.619C328.019 248.708 327.212 249.544 326.156 250.126C325.105 250.709 323.841 251 322.364 251ZM320.07 248.72H322.236C323.249 248.72 324.094 248.536 324.771 248.166C325.448 247.792 325.957 247.236 326.298 246.497C326.639 245.754 326.81 244.826 326.81 243.713C326.81 242.6 326.639 241.677 326.298 240.943C325.957 240.205 325.453 239.653 324.786 239.288C324.123 238.919 323.299 238.734 322.314 238.734H320.07V248.72ZM336.643 251.213C335.549 251.213 334.604 250.986 333.809 250.531C333.018 250.072 332.41 249.423 331.984 248.585C331.558 247.742 331.344 246.75 331.344 245.609C331.344 244.487 331.558 243.502 331.984 242.655C332.415 241.803 333.016 241.14 333.788 240.666C334.559 240.188 335.466 239.949 336.508 239.949C337.18 239.949 337.815 240.058 338.411 240.276C339.013 240.489 339.543 240.82 340.002 241.27C340.466 241.72 340.831 242.293 341.096 242.989C341.361 243.68 341.494 244.504 341.494 245.46V246.249H332.552V244.516H339.029C339.024 244.023 338.918 243.585 338.71 243.202C338.501 242.813 338.21 242.508 337.836 242.286C337.467 242.063 337.036 241.952 336.543 241.952C336.018 241.952 335.556 242.08 335.158 242.335C334.761 242.586 334.451 242.918 334.228 243.33C334.01 243.737 333.899 244.184 333.894 244.672V246.185C333.894 246.819 334.01 247.364 334.242 247.818C334.474 248.268 334.799 248.614 335.215 248.855C335.632 249.092 336.12 249.21 336.678 249.21C337.052 249.21 337.391 249.158 337.694 249.054C337.997 248.945 338.26 248.786 338.482 248.578C338.705 248.37 338.873 248.112 338.987 247.804L341.387 248.074C341.236 248.708 340.947 249.262 340.521 249.736C340.099 250.205 339.559 250.569 338.901 250.83C338.243 251.085 337.49 251.213 336.643 251.213ZM352.291 242.974L349.947 243.23C349.881 242.993 349.765 242.771 349.599 242.562C349.438 242.354 349.22 242.186 348.946 242.058C348.671 241.93 348.335 241.866 347.937 241.866C347.402 241.866 346.952 241.982 346.588 242.214C346.228 242.446 346.05 242.747 346.055 243.116C346.05 243.434 346.166 243.692 346.403 243.891C346.645 244.089 347.042 244.253 347.596 244.381L349.457 244.778C350.489 245.001 351.256 245.354 351.758 245.837C352.265 246.32 352.52 246.952 352.525 247.733C352.52 248.42 352.319 249.026 351.922 249.551C351.529 250.072 350.982 250.479 350.281 250.773C349.58 251.066 348.775 251.213 347.866 251.213C346.531 251.213 345.456 250.934 344.642 250.375C343.827 249.812 343.342 249.028 343.186 248.024L345.693 247.783C345.806 248.275 346.048 248.647 346.417 248.898C346.787 249.149 347.267 249.274 347.859 249.274C348.47 249.274 348.96 249.149 349.329 248.898C349.703 248.647 349.89 248.337 349.89 247.967C349.89 247.655 349.77 247.397 349.528 247.193C349.291 246.99 348.922 246.833 348.42 246.724L346.559 246.334C345.513 246.116 344.739 245.749 344.237 245.233C343.735 244.712 343.486 244.054 343.491 243.259C343.486 242.586 343.669 242.004 344.038 241.511C344.412 241.014 344.931 240.631 345.593 240.361C346.261 240.086 347.03 239.949 347.902 239.949C349.18 239.949 350.186 240.221 350.92 240.766C351.659 241.31 352.116 242.046 352.291 242.974ZM354.645 251V240.091H357.216V251H354.645ZM355.938 238.543C355.531 238.543 355.18 238.408 354.887 238.138C354.593 237.863 354.446 237.534 354.446 237.151C354.446 236.762 354.593 236.433 354.887 236.163C355.18 235.889 355.531 235.751 355.938 235.751C356.35 235.751 356.7 235.889 356.989 236.163C357.283 236.433 357.429 236.762 357.429 237.151C357.429 237.534 357.283 237.863 356.989 238.138C356.7 238.408 356.35 238.543 355.938 238.543ZM364.604 255.318C363.681 255.318 362.888 255.193 362.225 254.942C361.562 254.696 361.03 254.364 360.627 253.947C360.225 253.531 359.945 253.069 359.789 252.562L362.104 252.001C362.209 252.214 362.36 252.425 362.559 252.634C362.758 252.847 363.025 253.022 363.362 253.159C363.702 253.301 364.131 253.372 364.647 253.372C365.376 253.372 365.98 253.195 366.458 252.839C366.936 252.489 367.175 251.911 367.175 251.107V249.04H367.048C366.915 249.305 366.721 249.577 366.465 249.857C366.214 250.136 365.88 250.37 365.464 250.56C365.052 250.749 364.533 250.844 363.908 250.844C363.07 250.844 362.31 250.647 361.629 250.254C360.951 249.857 360.412 249.265 360.009 248.479C359.612 247.688 359.413 246.698 359.413 245.51C359.413 244.312 359.612 243.301 360.009 242.477C360.412 241.649 360.954 241.021 361.636 240.595C362.317 240.164 363.077 239.949 363.915 239.949C364.555 239.949 365.08 240.058 365.492 240.276C365.909 240.489 366.24 240.747 366.487 241.05C366.733 241.348 366.92 241.63 367.048 241.895H367.19V240.091H369.725V251.178C369.725 252.11 369.503 252.882 369.058 253.493C368.612 254.104 368.004 254.561 367.232 254.864C366.46 255.167 365.585 255.318 364.604 255.318ZM364.626 248.827C365.17 248.827 365.634 248.694 366.018 248.429C366.401 248.164 366.692 247.783 366.891 247.286C367.09 246.788 367.19 246.192 367.19 245.496C367.19 244.809 367.09 244.208 366.891 243.692C366.697 243.176 366.408 242.776 366.025 242.491C365.646 242.203 365.18 242.058 364.626 242.058C364.053 242.058 363.575 242.207 363.191 242.506C362.808 242.804 362.519 243.214 362.325 243.734C362.13 244.25 362.033 244.838 362.033 245.496C362.033 246.163 362.13 246.748 362.325 247.25C362.523 247.747 362.815 248.135 363.198 248.415C363.586 248.689 364.062 248.827 364.626 248.827ZM374.931 244.608V251H372.36V240.091H374.817V241.945H374.945C375.196 241.334 375.596 240.848 376.146 240.489C376.7 240.129 377.384 239.949 378.198 239.949C378.951 239.949 379.607 240.11 380.165 240.432C380.729 240.754 381.165 241.22 381.472 241.831C381.785 242.442 381.939 243.183 381.934 244.054V251H379.363V244.452C379.363 243.723 379.174 243.152 378.795 242.74C378.421 242.328 377.902 242.122 377.239 242.122C376.79 242.122 376.389 242.222 376.039 242.42C375.693 242.615 375.421 242.896 375.222 243.266C375.028 243.635 374.931 244.082 374.931 244.608ZM389.377 251.213C388.283 251.213 387.339 250.986 386.543 250.531C385.753 250.072 385.144 249.423 384.718 248.585C384.292 247.742 384.079 246.75 384.079 245.609C384.079 244.487 384.292 243.502 384.718 242.655C385.149 241.803 385.75 241.14 386.522 240.666C387.294 240.188 388.201 239.949 389.242 239.949C389.915 239.949 390.549 240.058 391.146 240.276C391.747 240.489 392.277 240.82 392.737 241.27C393.201 241.72 393.565 242.293 393.83 242.989C394.095 243.68 394.228 244.504 394.228 245.46V246.249H385.286V244.516H391.763C391.759 244.023 391.652 243.585 391.444 243.202C391.236 242.813 390.944 242.508 390.57 242.286C390.201 242.063 389.77 241.952 389.278 241.952C388.752 241.952 388.29 242.08 387.893 242.335C387.495 242.586 387.185 242.918 386.962 243.33C386.745 243.737 386.633 244.184 386.629 244.672V246.185C386.629 246.819 386.745 247.364 386.977 247.818C387.209 248.268 387.533 248.614 387.95 248.855C388.366 249.092 388.854 249.21 389.413 249.21C389.787 249.21 390.125 249.158 390.428 249.054C390.731 248.945 390.994 248.786 391.217 248.578C391.439 248.37 391.607 248.112 391.721 247.804L394.121 248.074C393.97 248.708 393.681 249.262 393.255 249.736C392.834 250.205 392.294 250.569 391.636 250.83C390.978 251.085 390.225 251.213 389.377 251.213ZM396.403 251V240.091H398.896V241.909H399.01C399.208 241.279 399.549 240.794 400.032 240.453C400.52 240.107 401.076 239.935 401.701 239.935C401.843 239.935 402.002 239.942 402.177 239.956C402.357 239.965 402.506 239.982 402.625 240.006V242.371C402.516 242.333 402.343 242.3 402.106 242.271C401.874 242.238 401.649 242.222 401.431 242.222C400.963 242.222 400.541 242.323 400.167 242.527C399.798 242.726 399.507 243.003 399.294 243.358C399.081 243.713 398.974 244.123 398.974 244.587V251H396.403ZM414.336 251H409.407V236.455H414.436C415.88 236.455 417.12 236.746 418.157 237.328C419.199 237.906 419.999 238.737 420.558 239.821C421.117 240.905 421.396 242.203 421.396 243.713C421.396 245.228 421.114 246.53 420.551 247.619C419.992 248.708 419.185 249.544 418.129 250.126C417.078 250.709 415.814 251 414.336 251ZM412.042 248.72H414.208C415.222 248.72 416.067 248.536 416.744 248.166C417.421 247.792 417.93 247.236 418.271 246.497C418.612 245.754 418.782 244.826 418.782 243.713C418.782 242.6 418.612 241.677 418.271 240.943C417.93 240.205 417.426 239.653 416.758 239.288C416.095 238.919 415.271 238.734 414.287 238.734H412.042V248.72ZM428.615 251.213C427.522 251.213 426.577 250.986 425.782 250.531C424.991 250.072 424.382 249.423 423.956 248.585C423.53 247.742 423.317 246.75 423.317 245.609C423.317 244.487 423.53 243.502 423.956 242.655C424.387 241.803 424.989 241.14 425.76 240.666C426.532 240.188 427.439 239.949 428.48 239.949C429.153 239.949 429.787 240.058 430.384 240.276C430.985 240.489 431.516 240.82 431.975 241.27C432.439 241.72 432.803 242.293 433.069 242.989C433.334 243.68 433.466 244.504 433.466 245.46V246.249H424.525V244.516H431.002C430.997 244.023 430.891 243.585 430.682 243.202C430.474 242.813 430.183 242.508 429.809 242.286C429.439 242.063 429.008 241.952 428.516 241.952C427.99 241.952 427.529 242.08 427.131 242.335C426.733 242.586 426.423 242.918 426.201 243.33C425.983 243.737 425.872 244.184 425.867 244.672V246.185C425.867 246.819 425.983 247.364 426.215 247.818C426.447 248.268 426.771 248.614 427.188 248.855C427.605 249.092 428.092 249.21 428.651 249.21C429.025 249.21 429.364 249.158 429.667 249.054C429.97 248.945 430.232 248.786 430.455 248.578C430.677 248.37 430.846 248.112 430.959 247.804L433.36 248.074C433.208 248.708 432.919 249.262 432.493 249.736C432.072 250.205 431.532 250.569 430.874 250.83C430.216 251.085 429.463 251.213 428.615 251.213ZM445.073 240.091L441.188 251H438.347L434.462 240.091H437.204L439.711 248.195H439.825L442.339 240.091H445.073ZM451.311 251.213C450.217 251.213 449.272 250.986 448.477 250.531C447.686 250.072 447.078 249.423 446.652 248.585C446.225 247.742 446.012 246.75 446.012 245.609C446.012 244.487 446.225 243.502 446.652 242.655C447.083 241.803 447.684 241.14 448.456 240.666C449.227 240.188 450.134 239.949 451.176 239.949C451.848 239.949 452.483 240.058 453.079 240.276C453.681 240.489 454.211 240.82 454.67 241.27C455.134 241.72 455.499 242.293 455.764 242.989C456.029 243.68 456.162 244.504 456.162 245.46V246.249H447.22V244.516H453.697C453.692 244.023 453.586 243.585 453.377 243.202C453.169 242.813 452.878 242.508 452.504 242.286C452.135 242.063 451.704 241.952 451.211 241.952C450.686 241.952 450.224 242.08 449.826 242.335C449.429 242.586 449.118 242.918 448.896 243.33C448.678 243.737 448.567 244.184 448.562 244.672V246.185C448.562 246.819 448.678 247.364 448.91 247.818C449.142 248.268 449.467 248.614 449.883 248.855C450.3 249.092 450.788 249.21 451.346 249.21C451.72 249.21 452.059 249.158 452.362 249.054C452.665 248.945 452.928 248.786 453.15 248.578C453.373 248.37 453.541 248.112 453.654 247.804L456.055 248.074C455.904 248.708 455.615 249.262 455.189 249.736C454.767 250.205 454.227 250.569 453.569 250.83C452.911 251.085 452.158 251.213 451.311 251.213ZM460.908 236.455V251H458.337V236.455H460.908ZM468.31 251.213C467.245 251.213 466.321 250.979 465.54 250.51C464.759 250.041 464.153 249.385 463.722 248.543C463.296 247.7 463.083 246.715 463.083 245.588C463.083 244.461 463.296 243.474 463.722 242.626C464.153 241.779 464.759 241.121 465.54 240.652C466.321 240.183 467.245 239.949 468.31 239.949C469.375 239.949 470.299 240.183 471.08 240.652C471.861 241.121 472.465 241.779 472.891 242.626C473.322 243.474 473.537 244.461 473.537 245.588C473.537 246.715 473.322 247.7 472.891 248.543C472.465 249.385 471.861 250.041 471.08 250.51C470.299 250.979 469.375 251.213 468.31 251.213ZM468.324 249.153C468.902 249.153 469.385 248.995 469.773 248.678C470.161 248.356 470.45 247.925 470.64 247.385C470.834 246.845 470.931 246.244 470.931 245.581C470.931 244.913 470.834 244.31 470.64 243.77C470.45 243.225 470.161 242.792 469.773 242.47C469.385 242.148 468.902 241.987 468.324 241.987C467.732 241.987 467.24 242.148 466.847 242.47C466.459 242.792 466.167 243.225 465.973 243.77C465.784 244.31 465.689 244.913 465.689 245.581C465.689 246.244 465.784 246.845 465.973 247.385C466.167 247.925 466.459 248.356 466.847 248.678C467.24 248.995 467.732 249.153 468.324 249.153ZM475.719 255.091V240.091H478.248V241.895H478.397C478.53 241.63 478.717 241.348 478.958 241.05C479.2 240.747 479.526 240.489 479.938 240.276C480.35 240.058 480.876 239.949 481.515 239.949C482.358 239.949 483.118 240.164 483.795 240.595C484.477 241.021 485.016 241.653 485.414 242.491C485.817 243.325 486.018 244.348 486.018 245.56C486.018 246.758 485.821 247.776 485.428 248.614C485.035 249.452 484.5 250.091 483.823 250.531C483.146 250.972 482.379 251.192 481.522 251.192C480.897 251.192 480.379 251.088 479.967 250.879C479.555 250.671 479.223 250.42 478.972 250.126C478.726 249.828 478.534 249.546 478.397 249.281H478.29V255.091H475.719ZM478.241 245.545C478.241 246.251 478.34 246.869 478.539 247.399C478.743 247.929 479.034 248.344 479.413 248.642C479.796 248.936 480.26 249.082 480.805 249.082C481.373 249.082 481.849 248.931 482.232 248.628C482.616 248.32 482.905 247.901 483.099 247.371C483.298 246.836 483.397 246.227 483.397 245.545C483.397 244.868 483.3 244.267 483.106 243.741C482.912 243.216 482.623 242.804 482.239 242.506C481.856 242.207 481.378 242.058 480.805 242.058C480.255 242.058 479.789 242.203 479.406 242.491C479.022 242.78 478.731 243.185 478.532 243.706C478.338 244.227 478.241 244.84 478.241 245.545ZM493.049 251.213C491.955 251.213 491.011 250.986 490.215 250.531C489.424 250.072 488.816 249.423 488.39 248.585C487.964 247.742 487.751 246.75 487.751 245.609C487.751 244.487 487.964 243.502 488.39 242.655C488.821 241.803 489.422 241.14 490.194 240.666C490.966 240.188 491.872 239.949 492.914 239.949C493.586 239.949 494.221 240.058 494.817 240.276C495.419 240.489 495.949 240.82 496.408 241.27C496.872 241.72 497.237 242.293 497.502 242.989C497.767 243.68 497.9 244.504 497.9 245.46V246.249H488.958V244.516H495.435C495.431 244.023 495.324 243.585 495.116 243.202C494.907 242.813 494.616 242.508 494.242 242.286C493.873 242.063 493.442 241.952 492.95 241.952C492.424 241.952 491.962 242.08 491.565 242.335C491.167 242.586 490.857 242.918 490.634 243.33C490.416 243.737 490.305 244.184 490.3 244.672V246.185C490.3 246.819 490.416 247.364 490.648 247.818C490.88 248.268 491.205 248.614 491.621 248.855C492.038 249.092 492.526 249.21 493.085 249.21C493.459 249.21 493.797 249.158 494.1 249.054C494.403 248.945 494.666 248.786 494.888 248.578C495.111 248.37 495.279 248.112 495.393 247.804L497.793 248.074C497.642 248.708 497.353 249.262 496.927 249.736C496.505 250.205 495.966 250.569 495.308 250.83C494.649 251.085 493.897 251.213 493.049 251.213ZM500.075 251V240.091H502.568V241.909H502.681C502.88 241.279 503.221 240.794 503.704 240.453C504.192 240.107 504.748 239.935 505.373 239.935C505.515 239.935 505.674 239.942 505.849 239.956C506.029 239.965 506.178 239.982 506.297 240.006V242.371C506.188 242.333 506.015 242.3 505.778 242.271C505.546 242.238 505.321 242.222 505.103 242.222C504.635 242.222 504.213 242.323 503.839 242.527C503.47 242.726 503.179 243.003 502.966 243.358C502.752 243.713 502.646 244.123 502.646 244.587V251H500.075ZM512.44 238.663V236.455H524.045V238.663H519.549V251H516.936V238.663H512.44ZM526.169 251V240.091H528.74V251H526.169ZM527.461 238.543C527.054 238.543 526.704 238.408 526.41 238.138C526.117 237.863 525.97 237.534 525.97 237.151C525.97 236.762 526.117 236.433 526.41 236.163C526.704 235.889 527.054 235.751 527.461 235.751C527.873 235.751 528.224 235.889 528.512 236.163C528.806 236.433 528.953 236.762 528.953 237.151C528.953 237.534 528.806 237.863 528.512 238.138C528.224 238.408 527.873 238.543 527.461 238.543ZM531.384 251V240.091H533.841V241.945H533.969C534.196 241.32 534.572 240.832 535.098 240.482C535.624 240.126 536.251 239.949 536.98 239.949C537.719 239.949 538.341 240.129 538.848 240.489C539.359 240.844 539.719 241.329 539.928 241.945H540.041C540.283 241.339 540.69 240.856 541.263 240.496C541.84 240.131 542.525 239.949 543.315 239.949C544.319 239.949 545.138 240.266 545.773 240.901C546.407 241.535 546.724 242.461 546.724 243.678V251H544.146V244.075C544.146 243.398 543.966 242.903 543.607 242.591C543.247 242.274 542.806 242.115 542.286 242.115C541.665 242.115 541.18 242.309 540.83 242.697C540.484 243.081 540.311 243.58 540.311 244.196V251H537.79V243.969C537.79 243.405 537.619 242.955 537.278 242.619C536.942 242.283 536.502 242.115 535.957 242.115C535.588 242.115 535.252 242.21 534.949 242.399C534.646 242.584 534.404 242.847 534.224 243.188C534.045 243.524 533.955 243.917 533.955 244.366V251H531.384ZM554.162 251.213C553.069 251.213 552.124 250.986 551.328 250.531C550.538 250.072 549.929 249.423 549.503 248.585C549.077 247.742 548.864 246.75 548.864 245.609C548.864 244.487 549.077 243.502 549.503 242.655C549.934 241.803 550.535 241.14 551.307 240.666C552.079 240.188 552.986 239.949 554.027 239.949C554.7 239.949 555.334 240.058 555.931 240.276C556.532 240.489 557.062 240.82 557.522 241.27C557.986 241.72 558.35 242.293 558.615 242.989C558.881 243.68 559.013 244.504 559.013 245.46V246.249H550.071V244.516H556.549C556.544 244.023 556.437 243.585 556.229 243.202C556.021 242.813 555.73 242.508 555.355 242.286C554.986 242.063 554.555 241.952 554.063 241.952C553.537 241.952 553.076 242.08 552.678 242.335C552.28 242.586 551.97 242.918 551.748 243.33C551.53 243.737 551.418 244.184 551.414 244.672V246.185C551.414 246.819 551.53 247.364 551.762 247.818C551.994 248.268 552.318 248.614 552.735 248.855C553.151 249.092 553.639 249.21 554.198 249.21C554.572 249.21 554.91 249.158 555.213 249.054C555.516 248.945 555.779 248.786 556.002 248.578C556.224 248.37 556.392 248.112 556.506 247.804L558.907 248.074C558.755 248.708 558.466 249.262 558.04 249.736C557.619 250.205 557.079 250.569 556.421 250.83C555.763 251.085 555.01 251.213 554.162 251.213ZM569.324 251L565.219 236.455H568.053L570.673 247.143H570.808L573.607 236.455H576.185L578.99 247.151H579.118L581.739 236.455H584.572L580.467 251H577.868L574.956 240.794H574.842L571.923 251H569.324ZM588.312 251.22C587.621 251.22 586.998 251.097 586.444 250.851C585.895 250.6 585.459 250.231 585.137 249.743C584.82 249.255 584.661 248.654 584.661 247.939C584.661 247.323 584.775 246.814 585.002 246.412C585.229 246.009 585.54 245.688 585.933 245.446C586.326 245.205 586.768 245.022 587.261 244.899C587.758 244.771 588.272 244.679 588.802 244.622C589.441 244.556 589.96 244.497 590.357 244.445C590.755 244.388 591.044 244.303 591.224 244.189C591.408 244.071 591.501 243.888 591.501 243.642V243.599C591.501 243.064 591.342 242.65 591.025 242.357C590.708 242.063 590.251 241.916 589.654 241.916C589.024 241.916 588.525 242.054 588.156 242.328C587.791 242.603 587.545 242.927 587.417 243.301L585.016 242.96C585.206 242.297 585.518 241.743 585.954 241.298C586.389 240.848 586.922 240.512 587.552 240.29C588.182 240.062 588.878 239.949 589.64 239.949C590.165 239.949 590.689 240.01 591.21 240.134C591.73 240.257 592.206 240.46 592.637 240.744C593.068 241.024 593.414 241.405 593.674 241.888C593.939 242.371 594.072 242.974 594.072 243.699V251H591.6V249.501H591.515C591.359 249.804 591.138 250.089 590.854 250.354C590.575 250.614 590.222 250.825 589.796 250.986C589.375 251.142 588.88 251.22 588.312 251.22ZM588.979 249.331C589.496 249.331 589.943 249.229 590.322 249.026C590.701 248.817 590.992 248.543 591.195 248.202C591.404 247.861 591.508 247.489 591.508 247.087V245.801C591.427 245.867 591.29 245.929 591.096 245.986C590.906 246.043 590.693 246.092 590.457 246.135C590.22 246.178 589.986 246.215 589.754 246.249C589.522 246.282 589.32 246.31 589.15 246.334C588.766 246.386 588.423 246.471 588.12 246.589C587.817 246.708 587.578 246.874 587.403 247.087C587.228 247.295 587.14 247.565 587.14 247.896C587.14 248.37 587.313 248.727 587.658 248.969C588.004 249.21 588.444 249.331 588.979 249.331ZM605.279 242.974L602.935 243.23C602.869 242.993 602.753 242.771 602.587 242.562C602.426 242.354 602.209 242.186 601.934 242.058C601.659 241.93 601.323 241.866 600.925 241.866C600.39 241.866 599.941 241.982 599.576 242.214C599.216 242.446 599.039 242.747 599.043 243.116C599.039 243.434 599.155 243.692 599.391 243.891C599.633 244.089 600.031 244.253 600.585 244.381L602.445 244.778C603.478 245.001 604.245 245.354 604.746 245.837C605.253 246.32 605.509 246.952 605.513 247.733C605.509 248.42 605.308 249.026 604.91 249.551C604.517 250.072 603.97 250.479 603.269 250.773C602.568 251.066 601.763 251.213 600.854 251.213C599.519 251.213 598.444 250.934 597.63 250.375C596.816 249.812 596.33 249.028 596.174 248.024L598.681 247.783C598.795 248.275 599.036 248.647 599.406 248.898C599.775 249.149 600.255 249.274 600.847 249.274C601.458 249.274 601.948 249.149 602.317 248.898C602.692 248.647 602.879 248.337 602.879 247.967C602.879 247.655 602.758 247.397 602.516 247.193C602.28 246.99 601.91 246.833 601.408 246.724L599.548 246.334C598.501 246.116 597.727 245.749 597.225 245.233C596.723 244.712 596.475 244.054 596.479 243.259C596.475 242.586 596.657 242.004 597.026 241.511C597.4 241.014 597.919 240.631 598.582 240.361C599.249 240.086 600.019 239.949 600.89 239.949C602.168 239.949 603.174 240.221 603.908 240.766C604.647 241.31 605.104 242.046 605.279 242.974ZM613.081 240.091V242.08H606.81V240.091H613.081ZM608.358 237.477H610.929V247.719C610.929 248.064 610.981 248.33 611.085 248.514C611.194 248.694 611.336 248.817 611.511 248.884C611.687 248.95 611.881 248.983 612.094 248.983C612.255 248.983 612.402 248.971 612.534 248.947C612.671 248.924 612.776 248.902 612.847 248.884L613.28 250.893C613.143 250.941 612.946 250.993 612.69 251.05C612.439 251.107 612.132 251.14 611.767 251.149C611.123 251.168 610.543 251.071 610.027 250.858C609.511 250.64 609.101 250.304 608.798 249.849C608.5 249.395 608.353 248.827 608.358 248.145V237.477ZM619.944 251.213C618.85 251.213 617.905 250.986 617.11 250.531C616.319 250.072 615.711 249.423 615.284 248.585C614.858 247.742 614.645 246.75 614.645 245.609C614.645 244.487 614.858 243.502 615.284 242.655C615.715 241.803 616.317 241.14 617.088 240.666C617.86 240.188 618.767 239.949 619.809 239.949C620.481 239.949 621.115 240.058 621.712 240.276C622.313 240.489 622.844 240.82 623.303 241.27C623.767 241.72 624.132 242.293 624.397 242.989C624.662 243.68 624.794 244.504 624.794 245.46V246.249H615.853V244.516H622.33C622.325 244.023 622.219 243.585 622.01 243.202C621.802 242.813 621.511 242.508 621.137 242.286C620.767 242.063 620.337 241.952 619.844 241.952C619.319 241.952 618.857 242.08 618.459 242.335C618.061 242.586 617.751 242.918 617.529 243.33C617.311 243.737 617.2 244.184 617.195 244.672V246.185C617.195 246.819 617.311 247.364 617.543 247.818C617.775 248.268 618.099 248.614 618.516 248.855C618.933 249.092 619.42 249.21 619.979 249.21C620.353 249.21 620.692 249.158 620.995 249.054C621.298 248.945 621.56 248.786 621.783 248.578C622.006 248.37 622.174 248.112 622.287 247.804L624.688 248.074C624.536 248.708 624.248 249.262 623.821 249.736C623.4 250.205 622.86 250.569 622.202 250.83C621.544 251.085 620.791 251.213 619.944 251.213ZM626.969 251V240.091H629.462V241.909H629.576C629.775 241.279 630.116 240.794 630.599 240.453C631.086 240.107 631.643 239.935 632.268 239.935C632.41 239.935 632.568 239.942 632.744 239.956C632.924 239.965 633.073 239.982 633.191 240.006V242.371C633.082 242.333 632.909 242.3 632.673 242.271C632.441 242.238 632.216 242.222 631.998 242.222C631.529 242.222 631.108 242.323 630.734 242.527C630.364 242.726 630.073 243.003 629.86 243.358C629.647 243.713 629.54 244.123 629.54 244.587V251H626.969Z" fill="black"/>
</g>
<defs>
<linearGradient id="paint0_linear_1_210" x1="475" y1="0" x2="475" y2="355" gradientUnits="userSpaceOnUse">
<stop stop-color="#EEEEEE"/>
<stop offset="1" stop-color="#CCDEF9"/>
</linearGradient>
<clipPath id="clip0_1_210">
<rect width="950" height="350" fill="white"/>
</clipPath>
<clipPath id="clip1_1_210">
<rect width="673" height="357" fill="white"/>
</clipPath>
</defs>
</svg>
