<svg width="913" height="288" viewBox="0 0 913 288" fill="none" xmlns="http://www.w3.org/2000/svg">
<g filter="url(#filter0_dii_18_8)">
<g clip-path="url(#clip0_18_8)">
<rect x="4.5" y="1.5" width="936" height="275" fill="url(#paint0_linear_18_8)" fill-opacity="0.45"/>
<g filter="url(#filter1_d_18_8)">
<path d="M126.935 107.591V116.682H103.571V107.591H126.935ZM108.026 142.5V106.591C108.026 103.712 108.541 101.326 109.571 99.4318C110.601 97.5379 112.056 96.1212 113.935 95.1818C115.813 94.2424 118.026 93.7727 120.571 93.7727C122.162 93.7727 123.707 93.8939 125.207 94.1364C126.723 94.3788 127.844 94.5909 128.571 94.7727L126.753 103.773C126.298 103.636 125.768 103.53 125.162 103.455C124.556 103.364 124.026 103.318 123.571 103.318C122.389 103.318 121.594 103.568 121.185 104.068C120.776 104.568 120.571 105.227 120.571 106.045V142.5H108.026ZM144.321 95.9545V142.5H131.776V95.9545H144.321ZM167.531 143.136C163.743 143.136 160.501 142.386 157.804 140.886C155.107 139.371 153.039 137.265 151.599 134.568C150.16 131.856 149.44 128.712 149.44 125.136C149.44 121.561 150.16 118.424 151.599 115.727C153.039 113.015 155.107 110.909 157.804 109.409C160.501 107.894 163.743 107.136 167.531 107.136C171.319 107.136 174.562 107.894 177.259 109.409C179.955 110.909 182.024 113.015 183.463 115.727C184.902 118.424 185.622 121.561 185.622 125.136C185.622 128.712 184.902 131.856 183.463 134.568C182.024 137.265 179.955 139.371 177.259 140.886C174.562 142.386 171.319 143.136 167.531 143.136ZM167.622 133.864C168.683 133.864 169.599 133.508 170.372 132.795C171.145 132.083 171.743 131.068 172.168 129.75C172.592 128.432 172.804 126.864 172.804 125.045C172.804 123.212 172.592 121.644 172.168 120.341C171.743 119.023 171.145 118.008 170.372 117.295C169.599 116.583 168.683 116.227 167.622 116.227C166.501 116.227 165.539 116.583 164.736 117.295C163.933 118.008 163.319 119.023 162.895 120.341C162.471 121.644 162.259 123.212 162.259 125.045C162.259 126.864 162.471 128.432 162.895 129.75C163.319 131.068 163.933 132.083 164.736 132.795C165.539 133.508 166.501 133.864 167.622 133.864ZM190.713 142.5V107.591H202.895V114.227H203.259C203.895 111.773 204.902 109.977 206.281 108.841C207.675 107.705 209.304 107.136 211.168 107.136C211.713 107.136 212.251 107.182 212.781 107.273C213.327 107.348 213.849 107.462 214.349 107.614V118.318C213.728 118.106 212.963 117.947 212.054 117.841C211.145 117.735 210.365 117.682 209.713 117.682C208.486 117.682 207.38 117.962 206.395 118.523C205.425 119.068 204.66 119.841 204.099 120.841C203.539 121.826 203.259 122.985 203.259 124.318V142.5H190.713ZM218.463 142.5V107.591H231.009V142.5H218.463ZM224.736 103.955C223.039 103.955 221.584 103.394 220.372 102.273C219.16 101.152 218.554 99.803 218.554 98.2273C218.554 96.6515 219.16 95.303 220.372 94.1818C221.584 93.0606 223.039 92.5 224.736 92.5C226.448 92.5 227.902 93.0606 229.099 94.1818C230.312 95.303 230.918 96.6515 230.918 98.2273C230.918 99.803 230.312 101.152 229.099 102.273C227.902 103.394 226.448 103.955 224.736 103.955ZM249.946 122.864V142.5H237.401V107.591H249.31V114.227H249.673C250.431 112.015 251.764 110.28 253.673 109.023C255.598 107.765 257.84 107.136 260.401 107.136C262.87 107.136 265.014 107.705 266.832 108.841C268.666 109.962 270.082 111.508 271.082 113.477C272.098 115.447 272.598 117.697 272.582 120.227V142.5H260.037V122.864C260.052 121.136 259.613 119.78 258.719 118.795C257.84 117.811 256.613 117.318 255.037 117.318C254.007 117.318 253.105 117.545 252.332 118C251.575 118.439 250.991 119.076 250.582 119.909C250.173 120.727 249.961 121.712 249.946 122.864ZM310.685 118.955H299.139C299.079 118.242 298.829 117.629 298.389 117.114C297.95 116.598 297.382 116.205 296.685 115.932C296.003 115.644 295.245 115.5 294.412 115.5C293.336 115.5 292.412 115.697 291.639 116.091C290.866 116.485 290.488 117.045 290.503 117.773C290.488 118.288 290.707 118.765 291.162 119.205C291.632 119.644 292.533 119.985 293.866 120.227L300.957 121.5C304.533 122.152 307.192 123.25 308.935 124.795C310.692 126.326 311.579 128.379 311.594 130.955C311.579 133.439 310.836 135.598 309.366 137.432C307.912 139.25 305.92 140.659 303.389 141.659C300.874 142.644 298.003 143.136 294.776 143.136C289.442 143.136 285.268 142.045 282.253 139.864C279.253 137.682 277.579 134.803 277.23 131.227H289.685C289.851 132.333 290.397 133.189 291.321 133.795C292.26 134.386 293.442 134.682 294.866 134.682C296.018 134.682 296.965 134.485 297.707 134.091C298.465 133.697 298.851 133.136 298.866 132.409C298.851 131.742 298.518 131.212 297.866 130.818C297.23 130.424 296.23 130.106 294.866 129.864L288.685 128.773C285.124 128.152 282.457 126.97 280.685 125.227C278.912 123.485 278.033 121.242 278.048 118.5C278.033 116.076 278.67 114.023 279.957 112.341C281.26 110.644 283.116 109.356 285.526 108.477C287.95 107.583 290.821 107.136 294.139 107.136C299.185 107.136 303.162 108.182 306.071 110.273C308.995 112.364 310.533 115.258 310.685 118.955ZM329.037 142.955C326.552 142.955 324.264 142.303 322.173 141C320.098 139.697 318.431 137.72 317.173 135.068C315.931 132.417 315.31 129.076 315.31 125.045C315.31 120.833 315.961 117.409 317.264 114.773C318.582 112.136 320.279 110.205 322.355 108.977C324.446 107.75 326.643 107.136 328.946 107.136C330.673 107.136 332.188 107.439 333.491 108.045C334.795 108.636 335.885 109.432 336.764 110.432C337.643 111.417 338.31 112.5 338.764 113.682H338.946V95.9545H351.491V142.5H339.037V136.773H338.764C338.279 137.955 337.582 139.015 336.673 139.955C335.779 140.879 334.688 141.614 333.401 142.159C332.128 142.689 330.673 142.955 329.037 142.955ZM333.673 133.318C334.825 133.318 335.81 132.985 336.628 132.318C337.461 131.636 338.098 130.682 338.537 129.455C338.991 128.212 339.219 126.742 339.219 125.045C339.219 123.318 338.991 121.841 338.537 120.614C338.098 119.371 337.461 118.424 336.628 117.773C335.81 117.106 334.825 116.773 333.673 116.773C332.522 116.773 331.537 117.106 330.719 117.773C329.916 118.424 329.295 119.371 328.855 120.614C328.431 121.841 328.219 123.318 328.219 125.045C328.219 126.773 328.431 128.258 328.855 129.5C329.295 130.727 329.916 131.674 330.719 132.341C331.537 132.992 332.522 133.318 333.673 133.318ZM357.651 142.5V107.591H370.196V142.5H357.651ZM363.923 103.955C362.226 103.955 360.772 103.394 359.56 102.273C358.348 101.152 357.741 99.803 357.741 98.2273C357.741 96.6515 358.348 95.303 359.56 94.1818C360.772 93.0606 362.226 92.5 363.923 92.5C365.635 92.5 367.09 93.0606 368.287 94.1818C369.499 95.303 370.105 96.6515 370.105 98.2273C370.105 99.803 369.499 101.152 368.287 102.273C367.09 103.394 365.635 103.955 363.923 103.955ZM408.497 118.955H396.952C396.891 118.242 396.641 117.629 396.202 117.114C395.762 116.598 395.194 116.205 394.497 115.932C393.815 115.644 393.058 115.5 392.224 115.5C391.149 115.5 390.224 115.697 389.452 116.091C388.679 116.485 388.3 117.045 388.315 117.773C388.3 118.288 388.52 118.765 388.974 119.205C389.444 119.644 390.346 119.985 391.679 120.227L398.77 121.5C402.346 122.152 405.005 123.25 406.747 124.795C408.505 126.326 409.391 128.379 409.406 130.955C409.391 133.439 408.649 135.598 407.179 137.432C405.724 139.25 403.732 140.659 401.202 141.659C398.687 142.644 395.815 143.136 392.588 143.136C387.255 143.136 383.08 142.045 380.065 139.864C377.065 137.682 375.391 134.803 375.043 131.227H387.497C387.664 132.333 388.209 133.189 389.134 133.795C390.073 134.386 391.255 134.682 392.679 134.682C393.83 134.682 394.777 134.485 395.52 134.091C396.277 133.697 396.664 133.136 396.679 132.409C396.664 131.742 396.33 131.212 395.679 130.818C395.043 130.424 394.043 130.106 392.679 129.864L386.497 128.773C382.937 128.152 380.27 126.97 378.497 125.227C376.724 123.485 375.846 121.242 375.861 118.5C375.846 116.076 376.482 114.023 377.77 112.341C379.073 110.644 380.929 109.356 383.338 108.477C385.762 107.583 388.634 107.136 391.952 107.136C396.997 107.136 400.974 108.182 403.884 110.273C406.808 112.364 408.346 115.258 408.497 118.955ZM435.031 107.591V116.682H412.031V107.591H435.031ZM416.486 99.2273H429.031V131.273C429.031 131.758 429.115 132.167 429.281 132.5C429.448 132.818 429.705 133.061 430.054 133.227C430.402 133.379 430.849 133.455 431.395 133.455C431.774 133.455 432.213 133.409 432.713 133.318C433.228 133.227 433.607 133.152 433.849 133.091L435.668 141.909C435.107 142.076 434.304 142.28 433.259 142.523C432.228 142.765 431.001 142.924 429.577 143C426.698 143.152 424.281 142.856 422.327 142.114C420.372 141.356 418.902 140.167 417.918 138.545C416.933 136.924 416.455 134.894 416.486 132.455V99.2273ZM456.594 143.136C452.806 143.136 449.563 142.386 446.866 140.886C444.17 139.371 442.101 137.265 440.662 134.568C439.223 131.856 438.503 128.712 438.503 125.136C438.503 121.561 439.223 118.424 440.662 115.727C442.101 113.015 444.17 110.909 446.866 109.409C449.563 107.894 452.806 107.136 456.594 107.136C460.382 107.136 463.624 107.894 466.321 109.409C469.018 110.909 471.086 113.015 472.526 115.727C473.965 118.424 474.685 121.561 474.685 125.136C474.685 128.712 473.965 131.856 472.526 134.568C471.086 137.265 469.018 139.371 466.321 140.886C463.624 142.386 460.382 143.136 456.594 143.136ZM456.685 133.864C457.745 133.864 458.662 133.508 459.435 132.795C460.207 132.083 460.806 131.068 461.23 129.75C461.654 128.432 461.866 126.864 461.866 125.045C461.866 123.212 461.654 121.644 461.23 120.341C460.806 119.023 460.207 118.008 459.435 117.295C458.662 116.583 457.745 116.227 456.685 116.227C455.563 116.227 454.601 116.583 453.798 117.295C452.995 118.008 452.382 119.023 451.957 120.341C451.533 121.644 451.321 123.212 451.321 125.045C451.321 126.864 451.533 128.432 451.957 129.75C452.382 131.068 452.995 132.083 453.798 132.795C454.601 133.508 455.563 133.864 456.685 133.864ZM479.776 142.5V107.591H491.957V114.227H492.321C492.957 111.773 493.965 109.977 495.344 108.841C496.738 107.705 498.366 107.136 500.23 107.136C500.776 107.136 501.313 107.182 501.844 107.273C502.389 107.348 502.912 107.462 503.412 107.614V118.318C502.791 118.106 502.026 117.947 501.116 117.841C500.207 117.735 499.427 117.682 498.776 117.682C497.548 117.682 496.442 117.962 495.457 118.523C494.488 119.068 493.723 119.841 493.162 120.841C492.601 121.826 492.321 122.985 492.321 124.318V142.5H479.776ZM529.781 107.591V116.682H506.781V107.591H529.781ZM511.236 99.2273H523.781V131.273C523.781 131.758 523.865 132.167 524.031 132.5C524.198 132.818 524.455 133.061 524.804 133.227C525.152 133.379 525.599 133.455 526.145 133.455C526.524 133.455 526.963 133.409 527.463 133.318C527.978 133.227 528.357 133.152 528.599 133.091L530.418 141.909C529.857 142.076 529.054 142.28 528.009 142.523C526.978 142.765 525.751 142.924 524.327 143C521.448 143.152 519.031 142.856 517.077 142.114C515.122 141.356 513.652 140.167 512.668 138.545C511.683 136.924 511.205 134.894 511.236 132.455V99.2273ZM551.253 143.136C547.526 143.136 544.313 142.424 541.616 141C538.935 139.561 536.866 137.5 535.412 134.818C533.973 132.121 533.253 128.894 533.253 125.136C533.253 121.53 533.98 118.379 535.435 115.682C536.889 112.985 538.942 110.886 541.594 109.386C544.245 107.886 547.374 107.136 550.98 107.136C553.616 107.136 556.003 107.545 558.139 108.364C560.276 109.182 562.101 110.371 563.616 111.932C565.132 113.477 566.298 115.356 567.116 117.568C567.935 119.78 568.344 122.273 568.344 125.045V127.955H537.162V121.045H556.798C556.783 120.045 556.526 119.167 556.026 118.409C555.541 117.636 554.882 117.038 554.048 116.614C553.23 116.174 552.298 115.955 551.253 115.955C550.238 115.955 549.306 116.174 548.457 116.614C547.609 117.038 546.927 117.629 546.412 118.386C545.912 119.144 545.647 120.03 545.616 121.045V128.5C545.616 129.621 545.851 130.621 546.321 131.5C546.791 132.379 547.465 133.068 548.344 133.568C549.223 134.068 550.283 134.318 551.526 134.318C552.389 134.318 553.177 134.197 553.889 133.955C554.616 133.712 555.238 133.364 555.753 132.909C556.268 132.439 556.647 131.879 556.889 131.227H568.344C567.95 133.652 567.018 135.758 565.548 137.545C564.079 139.318 562.132 140.697 559.707 141.682C557.298 142.652 554.48 143.136 551.253 143.136ZM586.099 142.955C583.615 142.955 581.327 142.303 579.236 141C577.16 139.697 575.493 137.72 574.236 135.068C572.993 132.417 572.372 129.076 572.372 125.045C572.372 120.833 573.024 117.409 574.327 114.773C575.645 112.136 577.342 110.205 579.418 108.977C581.509 107.75 583.705 107.136 586.009 107.136C587.736 107.136 589.251 107.439 590.554 108.045C591.857 108.636 592.948 109.432 593.827 110.432C594.705 111.417 595.372 112.5 595.827 113.682H596.009V95.9545H608.554V142.5H596.099V136.773H595.827C595.342 137.955 594.645 139.015 593.736 139.955C592.842 140.879 591.751 141.614 590.463 142.159C589.19 142.689 587.736 142.955 586.099 142.955ZM590.736 133.318C591.887 133.318 592.872 132.985 593.69 132.318C594.524 131.636 595.16 130.682 595.599 129.455C596.054 128.212 596.281 126.742 596.281 125.045C596.281 123.318 596.054 121.841 595.599 120.614C595.16 119.371 594.524 118.424 593.69 117.773C592.872 117.106 591.887 116.773 590.736 116.773C589.584 116.773 588.599 117.106 587.781 117.773C586.978 118.424 586.357 119.371 585.918 120.614C585.493 121.841 585.281 123.318 585.281 125.045C585.281 126.773 585.493 128.258 585.918 129.5C586.357 130.727 586.978 131.674 587.781 132.341C588.599 132.992 589.584 133.318 590.736 133.318ZM649.895 107.591L638.168 142.5H623.622L611.895 107.591H625.077L630.713 130.682H631.077L636.713 107.591H649.895ZM653.463 142.5V107.591H666.009V142.5H653.463ZM659.736 103.955C658.039 103.955 656.584 103.394 655.372 102.273C654.16 101.152 653.554 99.803 653.554 98.2273C653.554 96.6515 654.16 95.303 655.372 94.1818C656.584 93.0606 658.039 92.5 659.736 92.5C661.448 92.5 662.902 93.0606 664.099 94.1818C665.312 95.303 665.918 96.6515 665.918 98.2273C665.918 99.803 665.312 101.152 664.099 102.273C662.902 103.394 661.448 103.955 659.736 103.955ZM704.31 118.955H692.764C692.704 118.242 692.454 117.629 692.014 117.114C691.575 116.598 691.007 116.205 690.31 115.932C689.628 115.644 688.87 115.5 688.037 115.5C686.961 115.5 686.037 115.697 685.264 116.091C684.491 116.485 684.113 117.045 684.128 117.773C684.113 118.288 684.332 118.765 684.787 119.205C685.257 119.644 686.158 119.985 687.491 120.227L694.582 121.5C698.158 122.152 700.817 123.25 702.56 124.795C704.317 126.326 705.204 128.379 705.219 130.955C705.204 133.439 704.461 135.598 702.991 137.432C701.537 139.25 699.545 140.659 697.014 141.659C694.499 142.644 691.628 143.136 688.401 143.136C683.067 143.136 678.893 142.045 675.878 139.864C672.878 137.682 671.204 134.803 670.855 131.227H683.31C683.476 132.333 684.022 133.189 684.946 133.795C685.885 134.386 687.067 134.682 688.491 134.682C689.643 134.682 690.59 134.485 691.332 134.091C692.09 133.697 692.476 133.136 692.491 132.409C692.476 131.742 692.143 131.212 691.491 130.818C690.855 130.424 689.855 130.106 688.491 129.864L682.31 128.773C678.749 128.152 676.082 126.97 674.31 125.227C672.537 123.485 671.658 121.242 671.673 118.5C671.658 116.076 672.295 114.023 673.582 112.341C674.885 110.644 676.741 109.356 679.151 108.477C681.575 107.583 684.446 107.136 687.764 107.136C692.81 107.136 696.787 108.182 699.696 110.273C702.62 112.364 704.158 115.258 704.31 118.955ZM710.026 142.5V107.591H722.571V142.5H710.026ZM716.298 103.955C714.601 103.955 713.147 103.394 711.935 102.273C710.723 101.152 710.116 99.803 710.116 98.2273C710.116 96.6515 710.723 95.303 711.935 94.1818C713.147 93.0606 714.601 92.5 716.298 92.5C718.01 92.5 719.465 93.0606 720.662 94.1818C721.874 95.303 722.48 96.6515 722.48 98.2273C722.48 99.803 721.874 101.152 720.662 102.273C719.465 103.394 718.01 103.955 716.298 103.955ZM745.781 143.136C741.993 143.136 738.751 142.386 736.054 140.886C733.357 139.371 731.289 137.265 729.849 134.568C728.41 131.856 727.69 128.712 727.69 125.136C727.69 121.561 728.41 118.424 729.849 115.727C731.289 113.015 733.357 110.909 736.054 109.409C738.751 107.894 741.993 107.136 745.781 107.136C749.569 107.136 752.812 107.894 755.509 109.409C758.205 110.909 760.274 113.015 761.713 115.727C763.152 118.424 763.872 121.561 763.872 125.136C763.872 128.712 763.152 131.856 761.713 134.568C760.274 137.265 758.205 139.371 755.509 140.886C752.812 142.386 749.569 143.136 745.781 143.136ZM745.872 133.864C746.933 133.864 747.849 133.508 748.622 132.795C749.395 132.083 749.993 131.068 750.418 129.75C750.842 128.432 751.054 126.864 751.054 125.045C751.054 123.212 750.842 121.644 750.418 120.341C749.993 119.023 749.395 118.008 748.622 117.295C747.849 116.583 746.933 116.227 745.872 116.227C744.751 116.227 743.789 116.583 742.986 117.295C742.183 118.008 741.569 119.023 741.145 120.341C740.721 121.644 740.509 123.212 740.509 125.045C740.509 126.864 740.721 128.432 741.145 129.75C741.569 131.068 742.183 132.083 742.986 132.795C743.789 133.508 744.751 133.864 745.872 133.864ZM781.509 122.864V142.5H768.963V107.591H780.872V114.227H781.236C781.993 112.015 783.327 110.28 785.236 109.023C787.16 107.765 789.402 107.136 791.963 107.136C794.433 107.136 796.577 107.705 798.395 108.841C800.228 109.962 801.645 111.508 802.645 113.477C803.66 115.447 804.16 117.697 804.145 120.227V142.5H791.599V122.864C791.615 121.136 791.175 119.78 790.281 118.795C789.402 117.811 788.175 117.318 786.599 117.318C785.569 117.318 784.668 117.545 783.895 118C783.137 118.439 782.554 119.076 782.145 119.909C781.736 120.727 781.524 121.712 781.509 122.864Z" fill="black"/>
</g>
<g filter="url(#filter2_d_18_8)">
<path d="M303.075 192.5H298.146V177.955H303.174C304.618 177.955 305.859 178.246 306.896 178.828C307.937 179.406 308.737 180.237 309.296 181.321C309.855 182.405 310.134 183.703 310.134 185.213C310.134 186.728 309.853 188.03 309.289 189.119C308.73 190.208 307.923 191.044 306.867 191.626C305.816 192.209 304.552 192.5 303.075 192.5ZM300.781 190.22H302.947C303.96 190.22 304.805 190.036 305.482 189.666C306.159 189.292 306.668 188.736 307.009 187.997C307.35 187.254 307.521 186.326 307.521 185.213C307.521 184.1 307.35 183.177 307.009 182.443C306.668 181.705 306.164 181.153 305.496 180.788C304.834 180.419 304.01 180.234 303.025 180.234H300.781V190.22ZM317.354 192.713C316.26 192.713 315.315 192.486 314.52 192.031C313.729 191.572 313.121 190.923 312.695 190.085C312.268 189.242 312.055 188.25 312.055 187.109C312.055 185.987 312.268 185.002 312.695 184.155C313.125 183.303 313.727 182.64 314.499 182.166C315.27 181.688 316.177 181.449 317.219 181.449C317.891 181.449 318.526 181.558 319.122 181.776C319.723 181.989 320.254 182.32 320.713 182.77C321.177 183.22 321.542 183.793 321.807 184.489C322.072 185.18 322.205 186.004 322.205 186.96V187.749H313.263V186.016H319.74C319.735 185.523 319.629 185.085 319.42 184.702C319.212 184.313 318.921 184.008 318.547 183.786C318.178 183.563 317.747 183.452 317.254 183.452C316.729 183.452 316.267 183.58 315.869 183.835C315.472 184.086 315.161 184.418 314.939 184.83C314.721 185.237 314.61 185.684 314.605 186.172V187.685C314.605 188.319 314.721 188.864 314.953 189.318C315.185 189.768 315.509 190.114 315.926 190.355C316.343 190.592 316.83 190.71 317.389 190.71C317.763 190.71 318.102 190.658 318.405 190.554C318.708 190.445 318.971 190.286 319.193 190.078C319.416 189.87 319.584 189.612 319.697 189.304L322.098 189.574C321.946 190.208 321.658 190.762 321.232 191.236C320.81 191.705 320.27 192.069 319.612 192.33C318.954 192.585 318.201 192.713 317.354 192.713ZM333.002 184.474L330.658 184.73C330.592 184.493 330.476 184.271 330.31 184.062C330.149 183.854 329.931 183.686 329.657 183.558C329.382 183.43 329.046 183.366 328.648 183.366C328.113 183.366 327.663 183.482 327.299 183.714C326.939 183.946 326.761 184.247 326.766 184.616C326.761 184.934 326.877 185.192 327.114 185.391C327.355 185.589 327.753 185.753 328.307 185.881L330.168 186.278C331.2 186.501 331.967 186.854 332.469 187.337C332.976 187.82 333.231 188.452 333.236 189.233C333.231 189.92 333.03 190.526 332.632 191.051C332.239 191.572 331.693 191.979 330.992 192.273C330.291 192.566 329.486 192.713 328.577 192.713C327.242 192.713 326.167 192.434 325.353 191.875C324.538 191.312 324.053 190.528 323.897 189.524L326.404 189.283C326.517 189.775 326.759 190.147 327.128 190.398C327.498 190.649 327.978 190.774 328.57 190.774C329.181 190.774 329.671 190.649 330.04 190.398C330.414 190.147 330.601 189.837 330.601 189.467C330.601 189.155 330.48 188.897 330.239 188.693C330.002 188.49 329.633 188.333 329.131 188.224L327.27 187.834C326.224 187.616 325.45 187.249 324.948 186.733C324.446 186.212 324.197 185.554 324.202 184.759C324.197 184.086 324.38 183.504 324.749 183.011C325.123 182.514 325.641 182.131 326.304 181.861C326.972 181.586 327.741 181.449 328.613 181.449C329.891 181.449 330.897 181.721 331.631 182.266C332.37 182.81 332.827 183.546 333.002 184.474ZM335.356 192.5V181.591H337.927V192.5H335.356ZM336.649 180.043C336.242 180.043 335.891 179.908 335.598 179.638C335.304 179.363 335.157 179.034 335.157 178.651C335.157 178.262 335.304 177.933 335.598 177.663C335.891 177.389 336.242 177.251 336.649 177.251C337.061 177.251 337.411 177.389 337.7 177.663C337.993 177.933 338.14 178.262 338.14 178.651C338.14 179.034 337.993 179.363 337.7 179.638C337.411 179.908 337.061 180.043 336.649 180.043ZM345.315 196.818C344.392 196.818 343.599 196.693 342.936 196.442C342.273 196.196 341.741 195.864 341.338 195.447C340.936 195.031 340.656 194.569 340.5 194.062L342.815 193.501C342.92 193.714 343.071 193.925 343.27 194.134C343.469 194.347 343.736 194.522 344.072 194.659C344.413 194.801 344.842 194.872 345.358 194.872C346.087 194.872 346.691 194.695 347.169 194.339C347.647 193.989 347.886 193.411 347.886 192.607V190.54H347.759C347.626 190.805 347.432 191.077 347.176 191.357C346.925 191.636 346.591 191.87 346.175 192.06C345.763 192.249 345.244 192.344 344.619 192.344C343.781 192.344 343.021 192.147 342.339 191.754C341.662 191.357 341.123 190.765 340.72 189.979C340.322 189.188 340.124 188.198 340.124 187.01C340.124 185.812 340.322 184.801 340.72 183.977C341.123 183.149 341.665 182.521 342.347 182.095C343.028 181.664 343.788 181.449 344.626 181.449C345.266 181.449 345.791 181.558 346.203 181.776C346.62 181.989 346.951 182.247 347.197 182.55C347.444 182.848 347.631 183.13 347.759 183.395H347.901V181.591H350.436V192.678C350.436 193.61 350.214 194.382 349.768 194.993C349.323 195.604 348.715 196.061 347.943 196.364C347.171 196.667 346.295 196.818 345.315 196.818ZM345.337 190.327C345.881 190.327 346.345 190.194 346.729 189.929C347.112 189.664 347.403 189.283 347.602 188.786C347.801 188.288 347.901 187.692 347.901 186.996C347.901 186.309 347.801 185.708 347.602 185.192C347.408 184.676 347.119 184.276 346.736 183.991C346.357 183.703 345.891 183.558 345.337 183.558C344.764 183.558 344.286 183.707 343.902 184.006C343.518 184.304 343.23 184.714 343.036 185.234C342.841 185.75 342.744 186.338 342.744 186.996C342.744 187.663 342.841 188.248 343.036 188.75C343.234 189.247 343.526 189.635 343.909 189.915C344.297 190.189 344.773 190.327 345.337 190.327ZM355.642 186.108V192.5H353.071V181.591H355.528V183.445H355.656C355.907 182.834 356.307 182.348 356.857 181.989C357.411 181.629 358.095 181.449 358.909 181.449C359.662 181.449 360.318 181.61 360.876 181.932C361.44 182.254 361.875 182.72 362.183 183.331C362.496 183.942 362.65 184.683 362.645 185.554V192.5H360.074V185.952C360.074 185.223 359.884 184.652 359.506 184.24C359.132 183.828 358.613 183.622 357.95 183.622C357.5 183.622 357.1 183.722 356.75 183.92C356.404 184.115 356.132 184.396 355.933 184.766C355.739 185.135 355.642 185.582 355.642 186.108ZM370.088 192.713C368.994 192.713 368.05 192.486 367.254 192.031C366.464 191.572 365.855 190.923 365.429 190.085C365.003 189.242 364.79 188.25 364.79 187.109C364.79 185.987 365.003 185.002 365.429 184.155C365.86 183.303 366.461 182.64 367.233 182.166C368.005 181.688 368.911 181.449 369.953 181.449C370.625 181.449 371.26 181.558 371.857 181.776C372.458 181.989 372.988 182.32 373.447 182.77C373.911 183.22 374.276 183.793 374.541 184.489C374.806 185.18 374.939 186.004 374.939 186.96V187.749H365.997V186.016H372.474C372.47 185.523 372.363 185.085 372.155 184.702C371.946 184.313 371.655 184.008 371.281 183.786C370.912 183.563 370.481 183.452 369.989 183.452C369.463 183.452 369.001 183.58 368.604 183.835C368.206 184.086 367.896 184.418 367.673 184.83C367.455 185.237 367.344 185.684 367.339 186.172V187.685C367.339 188.319 367.455 188.864 367.688 189.318C367.92 189.768 368.244 190.114 368.661 190.355C369.077 190.592 369.565 190.71 370.124 190.71C370.498 190.71 370.836 190.658 371.139 190.554C371.442 190.445 371.705 190.286 371.928 190.078C372.15 189.87 372.318 189.612 372.432 189.304L374.832 189.574C374.681 190.208 374.392 190.762 373.966 191.236C373.545 191.705 373.005 192.069 372.347 192.33C371.688 192.585 370.936 192.713 370.088 192.713ZM377.114 192.5V181.591H379.607V183.409H379.721C379.919 182.779 380.26 182.294 380.743 181.953C381.231 181.607 381.787 181.435 382.412 181.435C382.554 181.435 382.713 181.442 382.888 181.456C383.068 181.465 383.217 181.482 383.336 181.506V183.871C383.227 183.833 383.054 183.8 382.817 183.771C382.585 183.738 382.36 183.722 382.142 183.722C381.674 183.722 381.252 183.823 380.878 184.027C380.509 184.226 380.218 184.503 380.005 184.858C379.792 185.213 379.685 185.623 379.685 186.087V192.5H377.114ZM395.047 192.5H390.118V177.955H395.147C396.591 177.955 397.831 178.246 398.868 178.828C399.91 179.406 400.71 180.237 401.269 181.321C401.828 182.405 402.107 183.703 402.107 185.213C402.107 186.728 401.825 188.03 401.262 189.119C400.703 190.208 399.896 191.044 398.84 191.626C397.789 192.209 396.525 192.5 395.047 192.5ZM392.753 190.22H394.919C395.933 190.22 396.778 190.036 397.455 189.666C398.132 189.292 398.641 188.736 398.982 187.997C399.323 187.254 399.493 186.326 399.493 185.213C399.493 184.1 399.323 183.177 398.982 182.443C398.641 181.705 398.137 181.153 397.469 180.788C396.806 180.419 395.982 180.234 394.998 180.234H392.753V190.22ZM409.326 192.713C408.233 192.713 407.288 192.486 406.493 192.031C405.702 191.572 405.093 190.923 404.667 190.085C404.241 189.242 404.028 188.25 404.028 187.109C404.028 185.987 404.241 185.002 404.667 184.155C405.098 183.303 405.699 182.64 406.471 182.166C407.243 181.688 408.15 181.449 409.191 181.449C409.864 181.449 410.498 181.558 411.095 181.776C411.696 181.989 412.226 182.32 412.686 182.77C413.15 183.22 413.514 183.793 413.779 184.489C414.045 185.18 414.177 186.004 414.177 186.96V187.749H405.235V186.016H411.713C411.708 185.523 411.601 185.085 411.393 184.702C411.185 184.313 410.894 184.008 410.52 183.786C410.15 183.563 409.719 183.452 409.227 183.452C408.701 183.452 408.24 183.58 407.842 183.835C407.444 184.086 407.134 184.418 406.912 184.83C406.694 185.237 406.583 185.684 406.578 186.172V187.685C406.578 188.319 406.694 188.864 406.926 189.318C407.158 189.768 407.482 190.114 407.899 190.355C408.315 190.592 408.803 190.71 409.362 190.71C409.736 190.71 410.074 190.658 410.377 190.554C410.681 190.445 410.943 190.286 411.166 190.078C411.388 189.87 411.556 189.612 411.67 189.304L414.071 189.574C413.919 190.208 413.63 190.762 413.204 191.236C412.783 191.705 412.243 192.069 411.585 192.33C410.927 192.585 410.174 192.713 409.326 192.713ZM425.784 181.591L421.899 192.5H419.058L415.173 181.591H417.915L420.422 189.695H420.536L423.05 181.591H425.784ZM432.022 192.713C430.928 192.713 429.983 192.486 429.188 192.031C428.397 191.572 427.789 190.923 427.363 190.085C426.936 189.242 426.723 188.25 426.723 187.109C426.723 185.987 426.936 185.002 427.363 184.155C427.793 183.303 428.395 182.64 429.167 182.166C429.938 181.688 430.845 181.449 431.887 181.449C432.559 181.449 433.194 181.558 433.79 181.776C434.391 181.989 434.922 182.32 435.381 182.77C435.845 183.22 436.21 183.793 436.475 184.489C436.74 185.18 436.873 186.004 436.873 186.96V187.749H427.931V186.016H434.408C434.403 185.523 434.297 185.085 434.088 184.702C433.88 184.313 433.589 184.008 433.215 183.786C432.846 183.563 432.415 183.452 431.922 183.452C431.397 183.452 430.935 183.58 430.537 183.835C430.14 184.086 429.829 184.418 429.607 184.83C429.389 185.237 429.278 185.684 429.273 186.172V187.685C429.273 188.319 429.389 188.864 429.621 189.318C429.853 189.768 430.177 190.114 430.594 190.355C431.011 190.592 431.498 190.71 432.057 190.71C432.431 190.71 432.77 190.658 433.073 190.554C433.376 190.445 433.639 190.286 433.861 190.078C434.084 189.87 434.252 189.612 434.365 189.304L436.766 189.574C436.614 190.208 436.326 190.762 435.9 191.236C435.478 191.705 434.938 192.069 434.28 192.33C433.622 192.585 432.869 192.713 432.022 192.713ZM441.619 177.955V192.5H439.048V177.955H441.619ZM449.021 192.713C447.956 192.713 447.032 192.479 446.251 192.01C445.47 191.541 444.864 190.885 444.433 190.043C444.007 189.2 443.794 188.215 443.794 187.088C443.794 185.961 444.007 184.974 444.433 184.126C444.864 183.279 445.47 182.621 446.251 182.152C447.032 181.683 447.956 181.449 449.021 181.449C450.086 181.449 451.01 181.683 451.791 182.152C452.572 182.621 453.176 183.279 453.602 184.126C454.033 184.974 454.248 185.961 454.248 187.088C454.248 188.215 454.033 189.2 453.602 190.043C453.176 190.885 452.572 191.541 451.791 192.01C451.01 192.479 450.086 192.713 449.021 192.713ZM449.035 190.653C449.613 190.653 450.096 190.495 450.484 190.178C450.872 189.856 451.161 189.425 451.35 188.885C451.545 188.345 451.642 187.744 451.642 187.081C451.642 186.413 451.545 185.81 451.35 185.27C451.161 184.725 450.872 184.292 450.484 183.97C450.096 183.648 449.613 183.487 449.035 183.487C448.443 183.487 447.951 183.648 447.558 183.97C447.17 184.292 446.878 184.725 446.684 185.27C446.495 185.81 446.4 186.413 446.4 187.081C446.4 187.744 446.495 188.345 446.684 188.885C446.878 189.425 447.17 189.856 447.558 190.178C447.951 190.495 448.443 190.653 449.035 190.653ZM456.43 196.591V181.591H458.959V183.395H459.108C459.241 183.13 459.428 182.848 459.669 182.55C459.911 182.247 460.237 181.989 460.649 181.776C461.061 181.558 461.587 181.449 462.226 181.449C463.069 181.449 463.829 181.664 464.506 182.095C465.188 182.521 465.727 183.153 466.125 183.991C466.527 184.825 466.729 185.848 466.729 187.06C466.729 188.258 466.532 189.276 466.139 190.114C465.746 190.952 465.211 191.591 464.534 192.031C463.857 192.472 463.09 192.692 462.233 192.692C461.608 192.692 461.089 192.588 460.678 192.379C460.266 192.171 459.934 191.92 459.683 191.626C459.437 191.328 459.245 191.046 459.108 190.781H459.001V196.591H456.43ZM458.952 187.045C458.952 187.751 459.051 188.369 459.25 188.899C459.454 189.429 459.745 189.844 460.124 190.142C460.507 190.436 460.971 190.582 461.516 190.582C462.084 190.582 462.56 190.431 462.943 190.128C463.327 189.82 463.616 189.401 463.81 188.871C464.009 188.336 464.108 187.727 464.108 187.045C464.108 186.368 464.011 185.767 463.817 185.241C463.623 184.716 463.334 184.304 462.95 184.006C462.567 183.707 462.089 183.558 461.516 183.558C460.966 183.558 460.5 183.703 460.116 183.991C459.733 184.28 459.442 184.685 459.243 185.206C459.049 185.727 458.952 186.34 458.952 187.045ZM473.76 192.713C472.666 192.713 471.722 192.486 470.926 192.031C470.135 191.572 469.527 190.923 469.101 190.085C468.675 189.242 468.462 188.25 468.462 187.109C468.462 185.987 468.675 185.002 469.101 184.155C469.532 183.303 470.133 182.64 470.905 182.166C471.677 181.688 472.583 181.449 473.625 181.449C474.297 181.449 474.932 181.558 475.528 181.776C476.13 181.989 476.66 182.32 477.119 182.77C477.583 183.22 477.948 183.793 478.213 184.489C478.478 185.18 478.611 186.004 478.611 186.96V187.749H469.669V186.016H476.146C476.142 185.523 476.035 185.085 475.827 184.702C475.618 184.313 475.327 184.008 474.953 183.786C474.584 183.563 474.153 183.452 473.661 183.452C473.135 183.452 472.673 183.58 472.276 183.835C471.878 184.086 471.568 184.418 471.345 184.83C471.127 185.237 471.016 185.684 471.011 186.172V187.685C471.011 188.319 471.127 188.864 471.359 189.318C471.591 189.768 471.916 190.114 472.332 190.355C472.749 190.592 473.237 190.71 473.795 190.71C474.17 190.71 474.508 190.658 474.811 190.554C475.114 190.445 475.377 190.286 475.599 190.078C475.822 189.87 475.99 189.612 476.104 189.304L478.504 189.574C478.353 190.208 478.064 190.762 477.638 191.236C477.216 191.705 476.677 192.069 476.018 192.33C475.36 192.585 474.607 192.713 473.76 192.713ZM480.786 192.5V181.591H483.279V183.409H483.392C483.591 182.779 483.932 182.294 484.415 181.953C484.903 181.607 485.459 181.435 486.084 181.435C486.226 181.435 486.385 181.442 486.56 181.456C486.74 181.465 486.889 181.482 487.007 181.506V183.871C486.899 183.833 486.726 183.8 486.489 183.771C486.257 183.738 486.032 183.722 485.814 183.722C485.346 183.722 484.924 183.823 484.55 184.027C484.181 184.226 483.89 184.503 483.676 184.858C483.463 185.213 483.357 185.623 483.357 186.087V192.5H480.786ZM493.151 180.163V177.955H504.756V180.163H500.26V192.5H497.647V180.163H493.151ZM506.88 192.5V181.591H509.451V192.5H506.88ZM508.172 180.043C507.765 180.043 507.415 179.908 507.121 179.638C506.828 179.363 506.681 179.034 506.681 178.651C506.681 178.262 506.828 177.933 507.121 177.663C507.415 177.389 507.765 177.251 508.172 177.251C508.584 177.251 508.935 177.389 509.223 177.663C509.517 177.933 509.664 178.262 509.664 178.651C509.664 179.034 509.517 179.363 509.223 179.638C508.935 179.908 508.584 180.043 508.172 180.043ZM512.094 192.5V181.591H514.552V183.445H514.68C514.907 182.82 515.283 182.332 515.809 181.982C516.335 181.626 516.962 181.449 517.691 181.449C518.43 181.449 519.052 181.629 519.559 181.989C520.07 182.344 520.43 182.829 520.638 183.445H520.752C520.994 182.839 521.401 182.356 521.974 181.996C522.551 181.631 523.236 181.449 524.026 181.449C525.03 181.449 525.849 181.766 526.484 182.401C527.118 183.035 527.435 183.961 527.435 185.178V192.5H524.857V185.575C524.857 184.898 524.677 184.403 524.317 184.091C523.958 183.774 523.517 183.615 522.996 183.615C522.376 183.615 521.891 183.809 521.54 184.197C521.195 184.581 521.022 185.08 521.022 185.696V192.5H518.501V185.469C518.501 184.905 518.33 184.455 517.989 184.119C517.653 183.783 517.213 183.615 516.668 183.615C516.299 183.615 515.963 183.71 515.66 183.899C515.357 184.084 515.115 184.347 514.935 184.688C514.755 185.024 514.665 185.417 514.665 185.866V192.5H512.094ZM534.873 192.713C533.779 192.713 532.835 192.486 532.039 192.031C531.249 191.572 530.64 190.923 530.214 190.085C529.788 189.242 529.575 188.25 529.575 187.109C529.575 185.987 529.788 185.002 530.214 184.155C530.645 183.303 531.246 182.64 532.018 182.166C532.79 181.688 533.697 181.449 534.738 181.449C535.411 181.449 536.045 181.558 536.642 181.776C537.243 181.989 537.773 182.32 538.233 182.77C538.697 183.22 539.061 183.793 539.326 184.489C539.592 185.18 539.724 186.004 539.724 186.96V187.749H530.782V186.016H537.26C537.255 185.523 537.148 185.085 536.94 184.702C536.732 184.313 536.44 184.008 536.066 183.786C535.697 183.563 535.266 183.452 534.774 183.452C534.248 183.452 533.787 183.58 533.389 183.835C532.991 184.086 532.681 184.418 532.458 184.83C532.241 185.237 532.129 185.684 532.125 186.172V187.685C532.125 188.319 532.241 188.864 532.473 189.318C532.705 189.768 533.029 190.114 533.446 190.355C533.862 190.592 534.35 190.71 534.909 190.71C535.283 190.71 535.621 190.658 535.924 190.554C536.227 190.445 536.49 190.286 536.713 190.078C536.935 189.87 537.103 189.612 537.217 189.304L539.618 189.574C539.466 190.208 539.177 190.762 538.751 191.236C538.33 191.705 537.79 192.069 537.132 192.33C536.474 192.585 535.721 192.713 534.873 192.713ZM550.035 192.5L545.93 177.955H548.763L551.384 188.643H551.519L554.317 177.955H556.896L559.701 188.651H559.829L562.45 177.955H565.283L561.178 192.5H558.579L555.667 182.294H555.553L552.634 192.5H550.035ZM569.023 192.72C568.331 192.72 567.709 192.597 567.155 192.351C566.606 192.1 566.17 191.731 565.848 191.243C565.531 190.755 565.372 190.154 565.372 189.439C565.372 188.823 565.486 188.314 565.713 187.912C565.94 187.509 566.25 187.188 566.643 186.946C567.036 186.705 567.479 186.522 567.972 186.399C568.469 186.271 568.982 186.179 569.513 186.122C570.152 186.056 570.67 185.997 571.068 185.945C571.466 185.888 571.755 185.803 571.935 185.689C572.119 185.571 572.212 185.388 572.212 185.142V185.099C572.212 184.564 572.053 184.15 571.736 183.857C571.419 183.563 570.962 183.416 570.365 183.416C569.735 183.416 569.236 183.554 568.866 183.828C568.502 184.103 568.256 184.427 568.128 184.801L565.727 184.46C565.917 183.797 566.229 183.243 566.665 182.798C567.1 182.348 567.633 182.012 568.263 181.79C568.893 181.562 569.589 181.449 570.351 181.449C570.876 181.449 571.4 181.51 571.92 181.634C572.441 181.757 572.917 181.96 573.348 182.244C573.779 182.524 574.125 182.905 574.385 183.388C574.65 183.871 574.783 184.474 574.783 185.199V192.5H572.311V191.001H572.226C572.07 191.304 571.849 191.589 571.565 191.854C571.286 192.114 570.933 192.325 570.507 192.486C570.086 192.642 569.591 192.72 569.023 192.72ZM569.69 190.831C570.206 190.831 570.654 190.729 571.033 190.526C571.411 190.317 571.703 190.043 571.906 189.702C572.115 189.361 572.219 188.989 572.219 188.587V187.301C572.138 187.367 572.001 187.429 571.807 187.486C571.617 187.543 571.404 187.592 571.168 187.635C570.931 187.678 570.696 187.715 570.464 187.749C570.232 187.782 570.031 187.81 569.861 187.834C569.477 187.886 569.134 187.971 568.831 188.089C568.528 188.208 568.289 188.374 568.114 188.587C567.938 188.795 567.851 189.065 567.851 189.396C567.851 189.87 568.024 190.227 568.369 190.469C568.715 190.71 569.155 190.831 569.69 190.831ZM585.99 184.474L583.646 184.73C583.58 184.493 583.464 184.271 583.298 184.062C583.137 183.854 582.92 183.686 582.645 183.558C582.37 183.43 582.034 183.366 581.636 183.366C581.101 183.366 580.652 183.482 580.287 183.714C579.927 183.946 579.75 184.247 579.754 184.616C579.75 184.934 579.866 185.192 580.102 185.391C580.344 185.589 580.741 185.753 581.295 185.881L583.156 186.278C584.188 186.501 584.955 186.854 585.457 187.337C585.964 187.82 586.22 188.452 586.224 189.233C586.22 189.92 586.018 190.526 585.621 191.051C585.228 191.572 584.681 191.979 583.98 192.273C583.279 192.566 582.474 192.713 581.565 192.713C580.23 192.713 579.155 192.434 578.341 191.875C577.527 191.312 577.041 190.528 576.885 189.524L579.392 189.283C579.506 189.775 579.747 190.147 580.116 190.398C580.486 190.649 580.966 190.774 581.558 190.774C582.169 190.774 582.659 190.649 583.028 190.398C583.402 190.147 583.589 189.837 583.589 189.467C583.589 189.155 583.469 188.897 583.227 188.693C582.991 188.49 582.621 188.333 582.119 188.224L580.259 187.834C579.212 187.616 578.438 187.249 577.936 186.733C577.434 186.212 577.186 185.554 577.19 184.759C577.186 184.086 577.368 183.504 577.737 183.011C578.111 182.514 578.63 182.131 579.293 181.861C579.96 181.586 580.73 181.449 581.601 181.449C582.879 181.449 583.885 181.721 584.619 182.266C585.358 182.81 585.815 183.546 585.99 184.474ZM593.792 181.591V183.58H587.521V181.591H593.792ZM589.069 178.977H591.64V189.219C591.64 189.564 591.692 189.83 591.796 190.014C591.905 190.194 592.047 190.317 592.222 190.384C592.397 190.45 592.592 190.483 592.805 190.483C592.966 190.483 593.112 190.471 593.245 190.447C593.382 190.424 593.487 190.402 593.558 190.384L593.991 192.393C593.853 192.441 593.657 192.493 593.401 192.55C593.15 192.607 592.843 192.64 592.478 192.649C591.834 192.668 591.254 192.571 590.738 192.358C590.222 192.14 589.812 191.804 589.509 191.349C589.211 190.895 589.064 190.327 589.069 189.645V178.977ZM600.654 192.713C599.561 192.713 598.616 192.486 597.821 192.031C597.03 191.572 596.422 190.923 595.995 190.085C595.569 189.242 595.356 188.25 595.356 187.109C595.356 185.987 595.569 185.002 595.995 184.155C596.426 183.303 597.028 182.64 597.799 182.166C598.571 181.688 599.478 181.449 600.52 181.449C601.192 181.449 601.826 181.558 602.423 181.776C603.024 181.989 603.555 182.32 604.014 182.77C604.478 183.22 604.842 183.793 605.108 184.489C605.373 185.18 605.505 186.004 605.505 186.96V187.749H596.564V186.016H603.041C603.036 185.523 602.93 185.085 602.721 184.702C602.513 184.313 602.222 184.008 601.848 183.786C601.478 183.563 601.047 183.452 600.555 183.452C600.029 183.452 599.568 183.58 599.17 183.835C598.772 184.086 598.462 184.418 598.24 184.83C598.022 185.237 597.911 185.684 597.906 186.172V187.685C597.906 188.319 598.022 188.864 598.254 189.318C598.486 189.768 598.81 190.114 599.227 190.355C599.644 190.592 600.131 190.71 600.69 190.71C601.064 190.71 601.403 190.658 601.706 190.554C602.009 190.445 602.271 190.286 602.494 190.078C602.717 189.87 602.885 189.612 602.998 189.304L605.399 189.574C605.247 190.208 604.958 190.762 604.532 191.236C604.111 191.705 603.571 192.069 602.913 192.33C602.255 192.585 601.502 192.713 600.654 192.713ZM607.68 192.5V181.591H610.173V183.409H610.287C610.486 182.779 610.827 182.294 611.31 181.953C611.797 181.607 612.354 181.435 612.979 181.435C613.121 181.435 613.279 181.442 613.455 181.456C613.634 181.465 613.784 181.482 613.902 181.506V183.871C613.793 183.833 613.62 183.8 613.384 183.771C613.152 183.738 612.927 183.722 612.709 183.722C612.24 183.722 611.819 183.823 611.445 184.027C611.075 184.226 610.784 184.503 610.571 184.858C610.358 185.213 610.251 185.623 610.251 186.087V192.5H607.68Z" fill="black" fill-opacity="0.7" shape-rendering="crispEdges"/>
</g>
</g>
<rect x="6" y="2" width="899" height="274" rx="79.5" stroke="url(#paint1_linear_18_8)" stroke-opacity="0.9" shape-rendering="crispEdges"/>
</g>
<defs>
<filter id="filter0_dii_18_8" x="0" y="-18.5" width="913" height="306.5" filterUnits="userSpaceOnUse" color-interpolation-filters="sRGB">
<feFlood flood-opacity="0" result="BackgroundImageFix"/>
<feColorMatrix in="SourceAlpha" type="matrix" values="0 0 0 0 0 0 0 0 0 0 0 0 0 0 0 0 0 0 127 0" result="hardAlpha"/>
<feMorphology radius="3" operator="erode" in="SourceAlpha" result="effect1_dropShadow_18_8"/>
<feOffset dx="1" dy="5"/>
<feGaussianBlur stdDeviation="4.75"/>
<feComposite in2="hardAlpha" operator="out"/>
<feColorMatrix type="matrix" values="0 0 0 0 0 0 0 0 0 0 0 0 0 0 0 0 0 0 0.25 0"/>
<feBlend mode="normal" in2="BackgroundImageFix" result="effect1_dropShadow_18_8"/>
<feBlend mode="normal" in="SourceGraphic" in2="effect1_dropShadow_18_8" result="shape"/>
<feColorMatrix in="SourceAlpha" type="matrix" values="0 0 0 0 0 0 0 0 0 0 0 0 0 0 0 0 0 0 127 0" result="hardAlpha"/>
<feOffset dx="1" dy="3"/>
<feGaussianBlur stdDeviation="2.15"/>
<feComposite in2="hardAlpha" operator="arithmetic" k2="-1" k3="1"/>
<feColorMatrix type="matrix" values="0 0 0 0 0.464994 0 0 0 0 0.464994 0 0 0 0 0.464994 0 0 0 0.25 0"/>
<feBlend mode="normal" in2="shape" result="effect2_innerShadow_18_8"/>
<feColorMatrix in="SourceAlpha" type="matrix" values="0 0 0 0 0 0 0 0 0 0 0 0 0 0 0 0 0 0 127 0" result="hardAlpha"/>
<feMorphology radius="9" operator="erode" in="SourceAlpha" result="effect3_innerShadow_18_8"/>
<feOffset dy="-20"/>
<feGaussianBlur stdDeviation="6.75"/>
<feComposite in2="hardAlpha" operator="arithmetic" k2="-1" k3="1"/>
<feColorMatrix type="matrix" values="0 0 0 0 1 0 0 0 0 1 0 0 0 0 1 0 0 0 0.25 0"/>
<feBlend mode="normal" in2="effect2_innerShadow_18_8" result="effect3_innerShadow_18_8"/>
</filter>
<filter id="filter1_d_18_8" x="98.571" y="91.5" width="708.597" height="58.7273" filterUnits="userSpaceOnUse" color-interpolation-filters="sRGB">
<feFlood flood-opacity="0" result="BackgroundImageFix"/>
<feColorMatrix in="SourceAlpha" type="matrix" values="0 0 0 0 0 0 0 0 0 0 0 0 0 0 0 0 0 0 127 0" result="hardAlpha"/>
<feOffset dx="-1" dy="3"/>
<feGaussianBlur stdDeviation="2"/>
<feComposite in2="hardAlpha" operator="out"/>
<feColorMatrix type="matrix" values="0 0 0 0 0.331881 0 0 0 0 0.331881 0 0 0 0 0.331881 0 0 0 0.25 0"/>
<feBlend mode="normal" in2="BackgroundImageFix" result="effect1_dropShadow_18_8"/>
<feBlend mode="normal" in="SourceGraphic" in2="effect1_dropShadow_18_8" result="shape"/>
</filter>
<filter id="filter2_d_18_8" x="293.146" y="176.251" width="323.756" height="27.5667" filterUnits="userSpaceOnUse" color-interpolation-filters="sRGB">
<feFlood flood-opacity="0" result="BackgroundImageFix"/>
<feColorMatrix in="SourceAlpha" type="matrix" values="0 0 0 0 0 0 0 0 0 0 0 0 0 0 0 0 0 0 127 0" result="hardAlpha"/>
<feOffset dx="-1" dy="3"/>
<feGaussianBlur stdDeviation="2"/>
<feComposite in2="hardAlpha" operator="out"/>
<feColorMatrix type="matrix" values="0 0 0 0 0.331881 0 0 0 0 0.331881 0 0 0 0 0.331881 0 0 0 0.25 0"/>
<feBlend mode="normal" in2="BackgroundImageFix" result="effect1_dropShadow_18_8"/>
<feBlend mode="normal" in="SourceGraphic" in2="effect1_dropShadow_18_8" result="shape"/>
</filter>
<linearGradient id="paint0_linear_18_8" x1="472.5" y1="1.5" x2="472.5" y2="276.5" gradientUnits="userSpaceOnUse">
<stop stop-color="#F6F6F6"/>
<stop offset="1" stop-color="#FDFDFD"/>
</linearGradient>
<linearGradient id="paint1_linear_18_8" x1="5.5" y1="1.5" x2="159.205" y2="504.535" gradientUnits="userSpaceOnUse">
<stop offset="0.216346" stop-color="white"/>
<stop offset="1" stop-color="#CBCBCB" stop-opacity="0.59"/>
</linearGradient>
<clipPath id="clip0_18_8">
<rect x="5.5" y="1.5" width="900" height="275" rx="80" fill="white"/>
</clipPath>
</defs>
</svg>
